<?xml version="1.0" standalone="no"?>
<!DOCTYPE svg PUBLIC "-//W3C//DTD SVG 1.1//EN" "http://www.w3.org/Graphics/SVG/1.1/DTD/svg11.dtd">
<svg width="800" height="600" version="1.1" xmlns="http://www.w3.org/2000/svg">
<rect width="800" height="600" x="0" y="0" style="fill:rgb(238,238,238);stroke:none"/>
<rect width="800" height="600" x="0" y="0" style="fill:rgb(255,255,255);stroke:none"/>
<text x="2" y="566" fill="rgb(0,0,0)" font-family="Arial" font-size="12">0</text>
<text x="2" y="489" fill="rgb(0,0,0)" font-family="Arial" font-size="12">100000</text>
<text x="2" y="412" fill="rgb(0,0,0)" font-family="Arial" font-size="12">200000</text>
<text x="2" y="334" fill="rgb(0,0,0)" font-family="Arial" font-size="12">300000</text>
<text x="2" y="257" fill="rgb(0,0,0)" font-family="Arial" font-size="12">400000</text>
<text x="2" y="180" fill="rgb(0,0,0)" font-family="Arial" font-size="12">500000</text>
<text x="2" y="102" fill="rgb(0,0,0)" font-family="Arial" font-size="12">600000</text>
<text x="258" y="30" fill="rgb(0,0,0)" font-family="Arial" font-size="12">Distribution of sequence lengths over all sequences</text>
<line x1="53" y1="560" x2="790" y2="560" stroke="rgb(0,0,0)" stroke-width="1"/>
<line x1="53" y1="560" x2="53" y2="40" stroke="rgb(0,0,0)" stroke-width="1"/>
<text x="330" y="595" fill="rgb(0,0,0)" font-family="Arial" font-size="12">Sequence Length (bp)</text>
<text x="53" y="575" fill="rgb(0,0,0)" font-family="Arial" font-size="12">34</text>
<rect width="16" height="520" x="69" y="40" style="fill:rgb(230,230,230);stroke:none"/>
<text x="85" y="575" fill="rgb(0,0,0)" font-family="Arial" font-size="12">36</text>
<rect width="16" height="520" x="101" y="40" style="fill:rgb(230,230,230);stroke:none"/>
<text x="117" y="575" fill="rgb(0,0,0)" font-family="Arial" font-size="12">38</text>
<rect width="16" height="520" x="133" y="40" style="fill:rgb(230,230,230);stroke:none"/>
<text x="149" y="575" fill="rgb(0,0,0)" font-family="Arial" font-size="12">40</text>
<rect width="16" height="520" x="165" y="40" style="fill:rgb(230,230,230);stroke:none"/>
<text x="181" y="575" fill="rgb(0,0,0)" font-family="Arial" font-size="12">42</text>
<rect width="16" height="520" x="197" y="40" style="fill:rgb(230,230,230);stroke:none"/>
<text x="213" y="575" fill="rgb(0,0,0)" font-family="Arial" font-size="12">44</text>
<rect width="16" height="520" x="229" y="40" style="fill:rgb(230,230,230);stroke:none"/>
<text x="245" y="575" fill="rgb(0,0,0)" font-family="Arial" font-size="12">46</text>
<rect width="16" height="520" x="261" y="40" style="fill:rgb(230,230,230);stroke:none"/>
<text x="277" y="575" fill="rgb(0,0,0)" font-family="Arial" font-size="12">48</text>
<rect width="16" height="520" x="293" y="40" style="fill:rgb(230,230,230);stroke:none"/>
<text x="309" y="575" fill="rgb(0,0,0)" font-family="Arial" font-size="12">50</text>
<rect width="16" height="520" x="325" y="40" style="fill:rgb(230,230,230);stroke:none"/>
<text x="341" y="575" fill="rgb(0,0,0)" font-family="Arial" font-size="12">52</text>
<rect width="16" height="520" x="357" y="40" style="fill:rgb(230,230,230);stroke:none"/>
<text x="373" y="575" fill="rgb(0,0,0)" font-family="Arial" font-size="12">54</text>
<rect width="16" height="520" x="389" y="40" style="fill:rgb(230,230,230);stroke:none"/>
<text x="405" y="575" fill="rgb(0,0,0)" font-family="Arial" font-size="12">56</text>
<rect width="16" height="520" x="421" y="40" style="fill:rgb(230,230,230);stroke:none"/>
<text x="437" y="575" fill="rgb(0,0,0)" font-family="Arial" font-size="12">58</text>
<rect width="16" height="520" x="453" y="40" style="fill:rgb(230,230,230);stroke:none"/>
<text x="469" y="575" fill="rgb(0,0,0)" font-family="Arial" font-size="12">60</text>
<rect width="16" height="520" x="485" y="40" style="fill:rgb(230,230,230);stroke:none"/>
<text x="501" y="575" fill="rgb(0,0,0)" font-family="Arial" font-size="12">62</text>
<rect width="16" height="520" x="517" y="40" style="fill:rgb(230,230,230);stroke:none"/>
<text x="533" y="575" fill="rgb(0,0,0)" font-family="Arial" font-size="12">64</text>
<rect width="16" height="520" x="549" y="40" style="fill:rgb(230,230,230);stroke:none"/>
<text x="565" y="575" fill="rgb(0,0,0)" font-family="Arial" font-size="12">66</text>
<rect width="16" height="520" x="581" y="40" style="fill:rgb(230,230,230);stroke:none"/>
<text x="597" y="575" fill="rgb(0,0,0)" font-family="Arial" font-size="12">68</text>
<rect width="16" height="520" x="613" y="40" style="fill:rgb(230,230,230);stroke:none"/>
<text x="629" y="575" fill="rgb(0,0,0)" font-family="Arial" font-size="12">70</text>
<rect width="16" height="520" x="645" y="40" style="fill:rgb(230,230,230);stroke:none"/>
<text x="661" y="575" fill="rgb(0,0,0)" font-family="Arial" font-size="12">72</text>
<rect width="16" height="520" x="677" y="40" style="fill:rgb(230,230,230);stroke:none"/>
<text x="693" y="575" fill="rgb(0,0,0)" font-family="Arial" font-size="12">74</text>
<rect width="16" height="520" x="709" y="40" style="fill:rgb(230,230,230);stroke:none"/>
<text x="725" y="575" fill="rgb(0,0,0)" font-family="Arial" font-size="12">76</text>
<rect width="16" height="520" x="741" y="40" style="fill:rgb(230,230,230);stroke:none"/>
<line x1="53" y1="560" x2="790" y2="560" stroke="rgb(180,180,180)" stroke-width="1"/>
<line x1="53" y1="483" x2="790" y2="483" stroke="rgb(180,180,180)" stroke-width="1"/>
<line x1="53" y1="406" x2="790" y2="406" stroke="rgb(180,180,180)" stroke-width="1"/>
<line x1="53" y1="328" x2="790" y2="328" stroke="rgb(180,180,180)" stroke-width="1"/>
<line x1="53" y1="251" x2="790" y2="251" stroke="rgb(180,180,180)" stroke-width="1"/>
<line x1="53" y1="174" x2="790" y2="174" stroke="rgb(180,180,180)" stroke-width="1"/>
<line x1="53" y1="96" x2="790" y2="96" stroke="rgb(180,180,180)" stroke-width="1"/>
<line x1="61" y1="560" x2="77" y2="558" stroke="rgb(136,34,85)" stroke-width="1"/>
<line x1="77" y1="558" x2="93" y2="560" stroke="rgb(136,34,85)" stroke-width="1"/>
<line x1="93" y1="560" x2="109" y2="560" stroke="rgb(136,34,85)" stroke-width="1"/>
<line x1="109" y1="560" x2="125" y2="560" stroke="rgb(136,34,85)" stroke-width="1"/>
<line x1="125" y1="560" x2="141" y2="560" stroke="rgb(136,34,85)" stroke-width="1"/>
<line x1="141" y1="560" x2="157" y2="559" stroke="rgb(136,34,85)" stroke-width="1"/>
<line x1="157" y1="559" x2="173" y2="559" stroke="rgb(136,34,85)" stroke-width="1"/>
<line x1="173" y1="559" x2="189" y2="559" stroke="rgb(136,34,85)" stroke-width="1"/>
<line x1="189" y1="559" x2="205" y2="560" stroke="rgb(136,34,85)" stroke-width="1"/>
<line x1="205" y1="560" x2="221" y2="560" stroke="rgb(136,34,85)" stroke-width="1"/>
<line x1="221" y1="560" x2="237" y2="560" stroke="rgb(136,34,85)" stroke-width="1"/>
<line x1="237" y1="560" x2="253" y2="560" stroke="rgb(136,34,85)" stroke-width="1"/>
<line x1="253" y1="560" x2="269" y2="560" stroke="rgb(136,34,85)" stroke-width="1"/>
<line x1="269" y1="560" x2="285" y2="560" stroke="rgb(136,34,85)" stroke-width="1"/>
<line x1="285" y1="560" x2="301" y2="560" stroke="rgb(136,34,85)" stroke-width="1"/>
<line x1="301" y1="560" x2="317" y2="559" stroke="rgb(136,34,85)" stroke-width="1"/>
<line x1="317" y1="559" x2="333" y2="559" stroke="rgb(136,34,85)" stroke-width="1"/>
<line x1="333" y1="559" x2="349" y2="559" stroke="rgb(136,34,85)" stroke-width="1"/>
<line x1="349" y1="559" x2="365" y2="559" stroke="rgb(136,34,85)" stroke-width="1"/>
<line x1="365" y1="559" x2="381" y2="559" stroke="rgb(136,34,85)" stroke-width="1"/>
<line x1="381" y1="559" x2="397" y2="559" stroke="rgb(136,34,85)" stroke-width="1"/>
<line x1="397" y1="559" x2="413" y2="559" stroke="rgb(136,34,85)" stroke-width="1"/>
<line x1="413" y1="559" x2="429" y2="560" stroke="rgb(136,34,85)" stroke-width="1"/>
<line x1="429" y1="560" x2="445" y2="560" stroke="rgb(136,34,85)" stroke-width="1"/>
<line x1="445" y1="560" x2="461" y2="560" stroke="rgb(136,34,85)" stroke-width="1"/>
<line x1="461" y1="560" x2="477" y2="559" stroke="rgb(136,34,85)" stroke-width="1"/>
<line x1="477" y1="559" x2="493" y2="559" stroke="rgb(136,34,85)" stroke-width="1"/>
<line x1="493" y1="559" x2="509" y2="558" stroke="rgb(136,34,85)" stroke-width="1"/>
<line x1="509" y1="558" x2="525" y2="558" stroke="rgb(136,34,85)" stroke-width="1"/>
<line x1="525" y1="558" x2="541" y2="558" stroke="rgb(136,34,85)" stroke-width="1"/>
<line x1="541" y1="558" x2="557" y2="558" stroke="rgb(136,34,85)" stroke-width="1"/>
<line x1="557" y1="558" x2="573" y2="559" stroke="rgb(136,34,85)" stroke-width="1"/>
<line x1="573" y1="559" x2="589" y2="559" stroke="rgb(136,34,85)" stroke-width="1"/>
<line x1="589" y1="559" x2="605" y2="559" stroke="rgb(136,34,85)" stroke-width="1"/>
<line x1="605" y1="559" x2="621" y2="559" stroke="rgb(136,34,85)" stroke-width="1"/>
<line x1="621" y1="559" x2="637" y2="559" stroke="rgb(136,34,85)" stroke-width="1"/>
<line x1="637" y1="559" x2="653" y2="558" stroke="rgb(136,34,85)" stroke-width="1"/>
<line x1="653" y1="558" x2="669" y2="555" stroke="rgb(136,34,85)" stroke-width="1"/>
<line x1="669" y1="555" x2="685" y2="546" stroke="rgb(136,34,85)" stroke-width="1"/>
<line x1="685" y1="546" x2="701" y2="511" stroke="rgb(136,34,85)" stroke-width="1"/>
<line x1="701" y1="511" x2="717" y2="421" stroke="rgb(136,34,85)" stroke-width="1"/>
<line x1="717" y1="421" x2="733" y2="40" stroke="rgb(136,34,85)" stroke-width="1"/>
<line x1="733" y1="40" x2="749" y2="560" stroke="rgb(136,34,85)" stroke-width="1"/>
<rect width="130" height="23" x="660" y="40" style="fill:rgb(255,255,255);stroke:none"/>
<rect width="130" height="23" x="660" y="40" rx="0" ry="0" style="fill:none;stroke-width:1;stroke:rgb(192,192,192)"/>
<text x="663" y="55" fill="rgb(136,34,85)" font-family="Arial" font-size="12" font-weight="bold">Sequence Length</text>
</svg>
