<?xml version="1.0" standalone="no"?>
<!DOCTYPE svg PUBLIC "-//W3C//DTD SVG 1.1//EN" "http://www.w3.org/Graphics/SVG/1.1/DTD/svg11.dtd">
<svg width="800" height="600" version="1.1" xmlns="http://www.w3.org/2000/svg">
<rect width="800" height="600" x="0" y="0" style="fill:rgb(238,238,238);stroke:none"/>
<rect width="800" height="600" x="0" y="0" style="fill:rgb(255,255,255);stroke:none"/>
<text x="2" y="566" fill="rgb(0,0,0)" font-family="Arial" font-size="12">0</text>
<text x="2" y="514" fill="rgb(0,0,0)" font-family="Arial" font-size="12">200000</text>
<text x="2" y="461" fill="rgb(0,0,0)" font-family="Arial" font-size="12">400000</text>
<text x="2" y="409" fill="rgb(0,0,0)" font-family="Arial" font-size="12">600000</text>
<text x="2" y="356" fill="rgb(0,0,0)" font-family="Arial" font-size="12">800000</text>
<text x="2" y="304" fill="rgb(0,0,0)" font-family="Arial" font-size="12">1000000</text>
<text x="2" y="251" fill="rgb(0,0,0)" font-family="Arial" font-size="12">1200000</text>
<text x="2" y="199" fill="rgb(0,0,0)" font-family="Arial" font-size="12">1400000</text>
<text x="2" y="146" fill="rgb(0,0,0)" font-family="Arial" font-size="12">1600000</text>
<text x="2" y="94" fill="rgb(0,0,0)" font-family="Arial" font-size="12">1800000</text>
<text x="292" y="30" fill="rgb(0,0,0)" font-family="Arial" font-size="12">Quality score distribution over all sequences</text>
<line x1="61" y1="560" x2="790" y2="560" stroke="rgb(0,0,0)" stroke-width="1"/>
<line x1="61" y1="560" x2="61" y2="40" stroke="rgb(0,0,0)" stroke-width="1"/>
<text x="286" y="595" fill="rgb(0,0,0)" font-family="Arial" font-size="12">Mean Sequence Quality (Phred Score)</text>
<text x="70" y="575" fill="rgb(0,0,0)" font-family="Arial" font-size="12">19</text>
<rect width="34" height="520" x="95" y="40" style="fill:rgb(230,230,230);stroke:none"/>
<text x="104" y="575" fill="rgb(0,0,0)" font-family="Arial" font-size="12">20</text>
<text x="138" y="575" fill="rgb(0,0,0)" font-family="Arial" font-size="12">21</text>
<rect width="34" height="520" x="163" y="40" style="fill:rgb(230,230,230);stroke:none"/>
<text x="172" y="575" fill="rgb(0,0,0)" font-family="Arial" font-size="12">22</text>
<text x="206" y="575" fill="rgb(0,0,0)" font-family="Arial" font-size="12">23</text>
<rect width="34" height="520" x="231" y="40" style="fill:rgb(230,230,230);stroke:none"/>
<text x="240" y="575" fill="rgb(0,0,0)" font-family="Arial" font-size="12">24</text>
<text x="274" y="575" fill="rgb(0,0,0)" font-family="Arial" font-size="12">25</text>
<rect width="34" height="520" x="299" y="40" style="fill:rgb(230,230,230);stroke:none"/>
<text x="308" y="575" fill="rgb(0,0,0)" font-family="Arial" font-size="12">26</text>
<text x="342" y="575" fill="rgb(0,0,0)" font-family="Arial" font-size="12">27</text>
<rect width="34" height="520" x="367" y="40" style="fill:rgb(230,230,230);stroke:none"/>
<text x="376" y="575" fill="rgb(0,0,0)" font-family="Arial" font-size="12">28</text>
<text x="410" y="575" fill="rgb(0,0,0)" font-family="Arial" font-size="12">29</text>
<rect width="34" height="520" x="435" y="40" style="fill:rgb(230,230,230);stroke:none"/>
<text x="444" y="575" fill="rgb(0,0,0)" font-family="Arial" font-size="12">30</text>
<text x="478" y="575" fill="rgb(0,0,0)" font-family="Arial" font-size="12">31</text>
<rect width="34" height="520" x="503" y="40" style="fill:rgb(230,230,230);stroke:none"/>
<text x="512" y="575" fill="rgb(0,0,0)" font-family="Arial" font-size="12">32</text>
<text x="546" y="575" fill="rgb(0,0,0)" font-family="Arial" font-size="12">33</text>
<rect width="34" height="520" x="571" y="40" style="fill:rgb(230,230,230);stroke:none"/>
<text x="580" y="575" fill="rgb(0,0,0)" font-family="Arial" font-size="12">34</text>
<text x="614" y="575" fill="rgb(0,0,0)" font-family="Arial" font-size="12">35</text>
<rect width="34" height="520" x="639" y="40" style="fill:rgb(230,230,230);stroke:none"/>
<text x="648" y="575" fill="rgb(0,0,0)" font-family="Arial" font-size="12">36</text>
<text x="682" y="575" fill="rgb(0,0,0)" font-family="Arial" font-size="12">37</text>
<rect width="34" height="520" x="707" y="40" style="fill:rgb(230,230,230);stroke:none"/>
<text x="716" y="575" fill="rgb(0,0,0)" font-family="Arial" font-size="12">38</text>
<text x="750" y="575" fill="rgb(0,0,0)" font-family="Arial" font-size="12">39</text>
<line x1="61" y1="560" x2="790" y2="560" stroke="rgb(180,180,180)" stroke-width="1"/>
<line x1="61" y1="508" x2="790" y2="508" stroke="rgb(180,180,180)" stroke-width="1"/>
<line x1="61" y1="455" x2="790" y2="455" stroke="rgb(180,180,180)" stroke-width="1"/>
<line x1="61" y1="403" x2="790" y2="403" stroke="rgb(180,180,180)" stroke-width="1"/>
<line x1="61" y1="350" x2="790" y2="350" stroke="rgb(180,180,180)" stroke-width="1"/>
<line x1="61" y1="298" x2="790" y2="298" stroke="rgb(180,180,180)" stroke-width="1"/>
<line x1="61" y1="245" x2="790" y2="245" stroke="rgb(180,180,180)" stroke-width="1"/>
<line x1="61" y1="193" x2="790" y2="193" stroke="rgb(180,180,180)" stroke-width="1"/>
<line x1="61" y1="140" x2="790" y2="140" stroke="rgb(180,180,180)" stroke-width="1"/>
<line x1="61" y1="88" x2="790" y2="88" stroke="rgb(180,180,180)" stroke-width="1"/>
<line x1="78" y1="560" x2="112" y2="560" stroke="rgb(136,34,85)" stroke-width="1"/>
<line x1="112" y1="560" x2="146" y2="560" stroke="rgb(136,34,85)" stroke-width="1"/>
<line x1="146" y1="560" x2="180" y2="560" stroke="rgb(136,34,85)" stroke-width="1"/>
<line x1="180" y1="560" x2="214" y2="560" stroke="rgb(136,34,85)" stroke-width="1"/>
<line x1="214" y1="560" x2="248" y2="559" stroke="rgb(136,34,85)" stroke-width="1"/>
<line x1="248" y1="559" x2="282" y2="558" stroke="rgb(136,34,85)" stroke-width="1"/>
<line x1="282" y1="558" x2="316" y2="557" stroke="rgb(136,34,85)" stroke-width="1"/>
<line x1="316" y1="557" x2="350" y2="555" stroke="rgb(136,34,85)" stroke-width="1"/>
<line x1="350" y1="555" x2="384" y2="551" stroke="rgb(136,34,85)" stroke-width="1"/>
<line x1="384" y1="551" x2="418" y2="547" stroke="rgb(136,34,85)" stroke-width="1"/>
<line x1="418" y1="547" x2="452" y2="541" stroke="rgb(136,34,85)" stroke-width="1"/>
<line x1="452" y1="541" x2="486" y2="533" stroke="rgb(136,34,85)" stroke-width="1"/>
<line x1="486" y1="533" x2="520" y2="523" stroke="rgb(136,34,85)" stroke-width="1"/>
<line x1="520" y1="523" x2="554" y2="506" stroke="rgb(136,34,85)" stroke-width="1"/>
<line x1="554" y1="506" x2="588" y2="482" stroke="rgb(136,34,85)" stroke-width="1"/>
<line x1="588" y1="482" x2="622" y2="443" stroke="rgb(136,34,85)" stroke-width="1"/>
<line x1="622" y1="443" x2="656" y2="386" stroke="rgb(136,34,85)" stroke-width="1"/>
<line x1="656" y1="386" x2="690" y2="287" stroke="rgb(136,34,85)" stroke-width="1"/>
<line x1="690" y1="287" x2="724" y2="40" stroke="rgb(136,34,85)" stroke-width="1"/>
<line x1="724" y1="40" x2="758" y2="558" stroke="rgb(136,34,85)" stroke-width="1"/>
<rect width="156" height="23" x="634" y="40" style="fill:rgb(255,255,255);stroke:none"/>
<rect width="156" height="23" x="634" y="40" rx="0" ry="0" style="fill:none;stroke-width:1;stroke:rgb(192,192,192)"/>
<text x="637" y="55" fill="rgb(136,34,85)" font-family="Arial" font-size="12" font-weight="bold">Average Quality per read</text>
</svg>
