<?xml version="1.0" standalone="no"?>
<!DOCTYPE svg PUBLIC "-//W3C//DTD SVG 1.1//EN" "http://www.w3.org/Graphics/SVG/1.1/DTD/svg11.dtd">
<svg width="800" height="600" version="1.1" xmlns="http://www.w3.org/2000/svg">
<rect width="800" height="600" x="0" y="0" style="fill:rgb(238,238,238);stroke:none"/>
<rect width="800" height="600" x="0" y="0" style="fill:rgb(255,255,255);stroke:none"/>
<text x="2" y="560" fill="rgb(0,0,0)" font-family="Arial" font-size="12">1101</text>
<text x="2" y="508" fill="rgb(0,0,0)" font-family="Arial" font-size="12">1102</text>
<text x="2" y="456" fill="rgb(0,0,0)" font-family="Arial" font-size="12">1103</text>
<text x="2" y="404" fill="rgb(0,0,0)" font-family="Arial" font-size="12">1104</text>
<text x="2" y="352" fill="rgb(0,0,0)" font-family="Arial" font-size="12">1105</text>
<text x="2" y="300" fill="rgb(0,0,0)" font-family="Arial" font-size="12">1106</text>
<text x="2" y="248" fill="rgb(0,0,0)" font-family="Arial" font-size="12">1107</text>
<text x="2" y="196" fill="rgb(0,0,0)" font-family="Arial" font-size="12">1108</text>
<text x="2" y="144" fill="rgb(0,0,0)" font-family="Arial" font-size="12">1201</text>
<text x="2" y="92" fill="rgb(0,0,0)" font-family="Arial" font-size="12">1202</text>
<text x="369" y="30" fill="rgb(0,0,0)" font-family="Arial" font-size="12">Quality per tile</text>
<line x1="37" y1="560" x2="790" y2="560" stroke="rgb(0,0,0)" stroke-width="1"/>
<line x1="37" y1="560" x2="37" y2="40" stroke="rgb(0,0,0)" stroke-width="1"/>
<text x="339" y="595" fill="rgb(0,0,0)" font-family="Arial" font-size="12">Position in read (bp)</text>
<text x="40" y="575" fill="rgb(0,0,0)" font-family="Arial" font-size="12">1</text>
<text x="55" y="575" fill="rgb(0,0,0)" font-family="Arial" font-size="12">2</text>
<text x="70" y="575" fill="rgb(0,0,0)" font-family="Arial" font-size="12">3</text>
<text x="85" y="575" fill="rgb(0,0,0)" font-family="Arial" font-size="12">4</text>
<text x="100" y="575" fill="rgb(0,0,0)" font-family="Arial" font-size="12">5</text>
<text x="115" y="575" fill="rgb(0,0,0)" font-family="Arial" font-size="12">6</text>
<text x="130" y="575" fill="rgb(0,0,0)" font-family="Arial" font-size="12">7</text>
<text x="145" y="575" fill="rgb(0,0,0)" font-family="Arial" font-size="12">8</text>
<text x="160" y="575" fill="rgb(0,0,0)" font-family="Arial" font-size="12">9</text>
<text x="186" y="575" fill="rgb(0,0,0)" font-family="Arial" font-size="12">11</text>
<text x="216" y="575" fill="rgb(0,0,0)" font-family="Arial" font-size="12">13</text>
<text x="246" y="575" fill="rgb(0,0,0)" font-family="Arial" font-size="12">15</text>
<text x="276" y="575" fill="rgb(0,0,0)" font-family="Arial" font-size="12">17</text>
<text x="306" y="575" fill="rgb(0,0,0)" font-family="Arial" font-size="12">19</text>
<text x="336" y="575" fill="rgb(0,0,0)" font-family="Arial" font-size="12">21</text>
<text x="366" y="575" fill="rgb(0,0,0)" font-family="Arial" font-size="12">23</text>
<text x="396" y="575" fill="rgb(0,0,0)" font-family="Arial" font-size="12">25</text>
<text x="426" y="575" fill="rgb(0,0,0)" font-family="Arial" font-size="12">27</text>
<text x="456" y="575" fill="rgb(0,0,0)" font-family="Arial" font-size="12">29</text>
<text x="486" y="575" fill="rgb(0,0,0)" font-family="Arial" font-size="12">31</text>
<text x="516" y="575" fill="rgb(0,0,0)" font-family="Arial" font-size="12">33</text>
<text x="546" y="575" fill="rgb(0,0,0)" font-family="Arial" font-size="12">35</text>
<text x="576" y="575" fill="rgb(0,0,0)" font-family="Arial" font-size="12">37</text>
<text x="606" y="575" fill="rgb(0,0,0)" font-family="Arial" font-size="12">39</text>
<text x="636" y="575" fill="rgb(0,0,0)" font-family="Arial" font-size="12">41</text>
<text x="666" y="575" fill="rgb(0,0,0)" font-family="Arial" font-size="12">43</text>
<text x="696" y="575" fill="rgb(0,0,0)" font-family="Arial" font-size="12">45</text>
<text x="726" y="575" fill="rgb(0,0,0)" font-family="Arial" font-size="12">47</text>
<text x="756" y="575" fill="rgb(0,0,0)" font-family="Arial" font-size="12">49</text>
<rect width="15" height="52" x="37" y="508" style="fill:rgb(0,0,200);stroke:none"/>
<rect width="15" height="52" x="52" y="508" style="fill:rgb(0,0,200);stroke:none"/>
<rect width="15" height="52" x="67" y="508" style="fill:rgb(0,0,200);stroke:none"/>
<rect width="15" height="52" x="82" y="508" style="fill:rgb(0,0,200);stroke:none"/>
<rect width="15" height="52" x="97" y="508" style="fill:rgb(0,0,200);stroke:none"/>
<rect width="15" height="52" x="112" y="508" style="fill:rgb(0,0,200);stroke:none"/>
<rect width="15" height="52" x="127" y="508" style="fill:rgb(0,0,200);stroke:none"/>
<rect width="15" height="52" x="142" y="508" style="fill:rgb(0,0,200);stroke:none"/>
<rect width="15" height="52" x="157" y="508" style="fill:rgb(0,0,200);stroke:none"/>
<rect width="15" height="52" x="172" y="508" style="fill:rgb(0,0,200);stroke:none"/>
<rect width="15" height="52" x="187" y="508" style="fill:rgb(0,0,200);stroke:none"/>
<rect width="15" height="52" x="202" y="508" style="fill:rgb(0,0,200);stroke:none"/>
<rect width="15" height="52" x="217" y="508" style="fill:rgb(0,0,200);stroke:none"/>
<rect width="15" height="52" x="232" y="508" style="fill:rgb(0,0,200);stroke:none"/>
<rect width="15" height="52" x="247" y="508" style="fill:rgb(0,0,200);stroke:none"/>
<rect width="15" height="52" x="262" y="508" style="fill:rgb(0,0,200);stroke:none"/>
<rect width="15" height="52" x="277" y="508" style="fill:rgb(0,0,200);stroke:none"/>
<rect width="15" height="52" x="292" y="508" style="fill:rgb(0,0,200);stroke:none"/>
<rect width="15" height="52" x="307" y="508" style="fill:rgb(0,0,200);stroke:none"/>
<rect width="15" height="52" x="322" y="508" style="fill:rgb(0,0,200);stroke:none"/>
<rect width="15" height="52" x="337" y="508" style="fill:rgb(0,0,200);stroke:none"/>
<rect width="15" height="52" x="352" y="508" style="fill:rgb(0,0,200);stroke:none"/>
<rect width="15" height="52" x="367" y="508" style="fill:rgb(0,0,200);stroke:none"/>
<rect width="15" height="52" x="382" y="508" style="fill:rgb(0,0,200);stroke:none"/>
<rect width="15" height="52" x="397" y="508" style="fill:rgb(0,0,200);stroke:none"/>
<rect width="15" height="52" x="412" y="508" style="fill:rgb(0,0,200);stroke:none"/>
<rect width="15" height="52" x="427" y="508" style="fill:rgb(0,0,200);stroke:none"/>
<rect width="15" height="52" x="442" y="508" style="fill:rgb(0,0,200);stroke:none"/>
<rect width="15" height="52" x="457" y="508" style="fill:rgb(0,0,200);stroke:none"/>
<rect width="15" height="52" x="472" y="508" style="fill:rgb(0,0,200);stroke:none"/>
<rect width="15" height="52" x="487" y="508" style="fill:rgb(0,0,200);stroke:none"/>
<rect width="15" height="52" x="502" y="508" style="fill:rgb(0,0,200);stroke:none"/>
<rect width="15" height="52" x="517" y="508" style="fill:rgb(0,0,200);stroke:none"/>
<rect width="15" height="52" x="532" y="508" style="fill:rgb(0,0,200);stroke:none"/>
<rect width="15" height="52" x="547" y="508" style="fill:rgb(0,0,200);stroke:none"/>
<rect width="15" height="52" x="562" y="508" style="fill:rgb(0,0,200);stroke:none"/>
<rect width="15" height="52" x="577" y="508" style="fill:rgb(0,0,200);stroke:none"/>
<rect width="15" height="52" x="592" y="508" style="fill:rgb(0,0,200);stroke:none"/>
<rect width="15" height="52" x="607" y="508" style="fill:rgb(0,0,200);stroke:none"/>
<rect width="15" height="52" x="622" y="508" style="fill:rgb(0,0,200);stroke:none"/>
<rect width="15" height="52" x="637" y="508" style="fill:rgb(0,0,200);stroke:none"/>
<rect width="15" height="52" x="652" y="508" style="fill:rgb(0,0,200);stroke:none"/>
<rect width="15" height="52" x="667" y="508" style="fill:rgb(0,0,200);stroke:none"/>
<rect width="15" height="52" x="682" y="508" style="fill:rgb(0,0,200);stroke:none"/>
<rect width="15" height="52" x="697" y="508" style="fill:rgb(0,0,200);stroke:none"/>
<rect width="15" height="52" x="712" y="508" style="fill:rgb(0,0,200);stroke:none"/>
<rect width="15" height="52" x="727" y="508" style="fill:rgb(0,0,200);stroke:none"/>
<rect width="15" height="52" x="742" y="508" style="fill:rgb(0,0,200);stroke:none"/>
<rect width="15" height="52" x="757" y="508" style="fill:rgb(0,0,200);stroke:none"/>
<rect width="15" height="52" x="37" y="456" style="fill:rgb(0,0,200);stroke:none"/>
<rect width="15" height="52" x="52" y="456" style="fill:rgb(0,0,200);stroke:none"/>
<rect width="15" height="52" x="67" y="456" style="fill:rgb(0,0,200);stroke:none"/>
<rect width="15" height="52" x="82" y="456" style="fill:rgb(0,0,200);stroke:none"/>
<rect width="15" height="52" x="97" y="456" style="fill:rgb(0,0,200);stroke:none"/>
<rect width="15" height="52" x="112" y="456" style="fill:rgb(0,0,200);stroke:none"/>
<rect width="15" height="52" x="127" y="456" style="fill:rgb(0,0,200);stroke:none"/>
<rect width="15" height="52" x="142" y="456" style="fill:rgb(0,0,200);stroke:none"/>
<rect width="15" height="52" x="157" y="456" style="fill:rgb(0,0,200);stroke:none"/>
<rect width="15" height="52" x="172" y="456" style="fill:rgb(0,0,200);stroke:none"/>
<rect width="15" height="52" x="187" y="456" style="fill:rgb(0,0,200);stroke:none"/>
<rect width="15" height="52" x="202" y="456" style="fill:rgb(0,0,200);stroke:none"/>
<rect width="15" height="52" x="217" y="456" style="fill:rgb(0,0,200);stroke:none"/>
<rect width="15" height="52" x="232" y="456" style="fill:rgb(0,0,200);stroke:none"/>
<rect width="15" height="52" x="247" y="456" style="fill:rgb(0,0,200);stroke:none"/>
<rect width="15" height="52" x="262" y="456" style="fill:rgb(0,0,200);stroke:none"/>
<rect width="15" height="52" x="277" y="456" style="fill:rgb(0,0,200);stroke:none"/>
<rect width="15" height="52" x="292" y="456" style="fill:rgb(0,0,200);stroke:none"/>
<rect width="15" height="52" x="307" y="456" style="fill:rgb(0,0,200);stroke:none"/>
<rect width="15" height="52" x="322" y="456" style="fill:rgb(0,0,200);stroke:none"/>
<rect width="15" height="52" x="337" y="456" style="fill:rgb(0,0,200);stroke:none"/>
<rect width="15" height="52" x="352" y="456" style="fill:rgb(0,0,200);stroke:none"/>
<rect width="15" height="52" x="367" y="456" style="fill:rgb(0,0,200);stroke:none"/>
<rect width="15" height="52" x="382" y="456" style="fill:rgb(0,0,200);stroke:none"/>
<rect width="15" height="52" x="397" y="456" style="fill:rgb(0,0,200);stroke:none"/>
<rect width="15" height="52" x="412" y="456" style="fill:rgb(0,0,200);stroke:none"/>
<rect width="15" height="52" x="427" y="456" style="fill:rgb(0,0,200);stroke:none"/>
<rect width="15" height="52" x="442" y="456" style="fill:rgb(0,0,200);stroke:none"/>
<rect width="15" height="52" x="457" y="456" style="fill:rgb(0,0,200);stroke:none"/>
<rect width="15" height="52" x="472" y="456" style="fill:rgb(0,0,200);stroke:none"/>
<rect width="15" height="52" x="487" y="456" style="fill:rgb(0,0,200);stroke:none"/>
<rect width="15" height="52" x="502" y="456" style="fill:rgb(0,0,200);stroke:none"/>
<rect width="15" height="52" x="517" y="456" style="fill:rgb(0,0,200);stroke:none"/>
<rect width="15" height="52" x="532" y="456" style="fill:rgb(0,0,200);stroke:none"/>
<rect width="15" height="52" x="547" y="456" style="fill:rgb(0,0,200);stroke:none"/>
<rect width="15" height="52" x="562" y="456" style="fill:rgb(0,0,200);stroke:none"/>
<rect width="15" height="52" x="577" y="456" style="fill:rgb(0,0,200);stroke:none"/>
<rect width="15" height="52" x="592" y="456" style="fill:rgb(0,0,200);stroke:none"/>
<rect width="15" height="52" x="607" y="456" style="fill:rgb(0,0,200);stroke:none"/>
<rect width="15" height="52" x="622" y="456" style="fill:rgb(0,0,200);stroke:none"/>
<rect width="15" height="52" x="637" y="456" style="fill:rgb(0,0,200);stroke:none"/>
<rect width="15" height="52" x="652" y="456" style="fill:rgb(0,0,200);stroke:none"/>
<rect width="15" height="52" x="667" y="456" style="fill:rgb(0,0,200);stroke:none"/>
<rect width="15" height="52" x="682" y="456" style="fill:rgb(0,0,200);stroke:none"/>
<rect width="15" height="52" x="697" y="456" style="fill:rgb(0,0,200);stroke:none"/>
<rect width="15" height="52" x="712" y="456" style="fill:rgb(0,0,200);stroke:none"/>
<rect width="15" height="52" x="727" y="456" style="fill:rgb(0,0,200);stroke:none"/>
<rect width="15" height="52" x="742" y="456" style="fill:rgb(0,0,200);stroke:none"/>
<rect width="15" height="52" x="757" y="456" style="fill:rgb(0,0,200);stroke:none"/>
<rect width="15" height="52" x="37" y="404" style="fill:rgb(0,0,200);stroke:none"/>
<rect width="15" height="52" x="52" y="404" style="fill:rgb(0,0,200);stroke:none"/>
<rect width="15" height="52" x="67" y="404" style="fill:rgb(0,0,200);stroke:none"/>
<rect width="15" height="52" x="82" y="404" style="fill:rgb(0,0,200);stroke:none"/>
<rect width="15" height="52" x="97" y="404" style="fill:rgb(0,0,200);stroke:none"/>
<rect width="15" height="52" x="112" y="404" style="fill:rgb(0,0,200);stroke:none"/>
<rect width="15" height="52" x="127" y="404" style="fill:rgb(0,0,200);stroke:none"/>
<rect width="15" height="52" x="142" y="404" style="fill:rgb(0,0,200);stroke:none"/>
<rect width="15" height="52" x="157" y="404" style="fill:rgb(0,0,200);stroke:none"/>
<rect width="15" height="52" x="172" y="404" style="fill:rgb(0,0,200);stroke:none"/>
<rect width="15" height="52" x="187" y="404" style="fill:rgb(0,0,200);stroke:none"/>
<rect width="15" height="52" x="202" y="404" style="fill:rgb(0,0,200);stroke:none"/>
<rect width="15" height="52" x="217" y="404" style="fill:rgb(0,0,200);stroke:none"/>
<rect width="15" height="52" x="232" y="404" style="fill:rgb(0,0,200);stroke:none"/>
<rect width="15" height="52" x="247" y="404" style="fill:rgb(0,0,200);stroke:none"/>
<rect width="15" height="52" x="262" y="404" style="fill:rgb(0,0,200);stroke:none"/>
<rect width="15" height="52" x="277" y="404" style="fill:rgb(0,0,200);stroke:none"/>
<rect width="15" height="52" x="292" y="404" style="fill:rgb(0,0,200);stroke:none"/>
<rect width="15" height="52" x="307" y="404" style="fill:rgb(0,0,200);stroke:none"/>
<rect width="15" height="52" x="322" y="404" style="fill:rgb(0,0,200);stroke:none"/>
<rect width="15" height="52" x="337" y="404" style="fill:rgb(0,0,200);stroke:none"/>
<rect width="15" height="52" x="352" y="404" style="fill:rgb(0,0,200);stroke:none"/>
<rect width="15" height="52" x="367" y="404" style="fill:rgb(0,0,200);stroke:none"/>
<rect width="15" height="52" x="382" y="404" style="fill:rgb(0,0,200);stroke:none"/>
<rect width="15" height="52" x="397" y="404" style="fill:rgb(0,0,200);stroke:none"/>
<rect width="15" height="52" x="412" y="404" style="fill:rgb(0,0,200);stroke:none"/>
<rect width="15" height="52" x="427" y="404" style="fill:rgb(0,0,200);stroke:none"/>
<rect width="15" height="52" x="442" y="404" style="fill:rgb(0,0,200);stroke:none"/>
<rect width="15" height="52" x="457" y="404" style="fill:rgb(0,0,200);stroke:none"/>
<rect width="15" height="52" x="472" y="404" style="fill:rgb(0,0,200);stroke:none"/>
<rect width="15" height="52" x="487" y="404" style="fill:rgb(0,0,200);stroke:none"/>
<rect width="15" height="52" x="502" y="404" style="fill:rgb(0,0,200);stroke:none"/>
<rect width="15" height="52" x="517" y="404" style="fill:rgb(0,0,200);stroke:none"/>
<rect width="15" height="52" x="532" y="404" style="fill:rgb(0,0,200);stroke:none"/>
<rect width="15" height="52" x="547" y="404" style="fill:rgb(0,0,200);stroke:none"/>
<rect width="15" height="52" x="562" y="404" style="fill:rgb(0,0,200);stroke:none"/>
<rect width="15" height="52" x="577" y="404" style="fill:rgb(0,0,200);stroke:none"/>
<rect width="15" height="52" x="592" y="404" style="fill:rgb(0,0,200);stroke:none"/>
<rect width="15" height="52" x="607" y="404" style="fill:rgb(0,0,200);stroke:none"/>
<rect width="15" height="52" x="622" y="404" style="fill:rgb(0,0,200);stroke:none"/>
<rect width="15" height="52" x="637" y="404" style="fill:rgb(0,0,200);stroke:none"/>
<rect width="15" height="52" x="652" y="404" style="fill:rgb(0,0,200);stroke:none"/>
<rect width="15" height="52" x="667" y="404" style="fill:rgb(0,0,200);stroke:none"/>
<rect width="15" height="52" x="682" y="404" style="fill:rgb(0,0,200);stroke:none"/>
<rect width="15" height="52" x="697" y="404" style="fill:rgb(0,0,200);stroke:none"/>
<rect width="15" height="52" x="712" y="404" style="fill:rgb(0,0,200);stroke:none"/>
<rect width="15" height="52" x="727" y="404" style="fill:rgb(0,0,200);stroke:none"/>
<rect width="15" height="52" x="742" y="404" style="fill:rgb(0,0,200);stroke:none"/>
<rect width="15" height="52" x="757" y="404" style="fill:rgb(0,0,200);stroke:none"/>
<rect width="15" height="52" x="37" y="352" style="fill:rgb(0,0,200);stroke:none"/>
<rect width="15" height="52" x="52" y="352" style="fill:rgb(0,0,200);stroke:none"/>
<rect width="15" height="52" x="67" y="352" style="fill:rgb(0,0,200);stroke:none"/>
<rect width="15" height="52" x="82" y="352" style="fill:rgb(0,0,200);stroke:none"/>
<rect width="15" height="52" x="97" y="352" style="fill:rgb(0,0,200);stroke:none"/>
<rect width="15" height="52" x="112" y="352" style="fill:rgb(0,0,200);stroke:none"/>
<rect width="15" height="52" x="127" y="352" style="fill:rgb(0,0,200);stroke:none"/>
<rect width="15" height="52" x="142" y="352" style="fill:rgb(0,0,200);stroke:none"/>
<rect width="15" height="52" x="157" y="352" style="fill:rgb(0,0,200);stroke:none"/>
<rect width="15" height="52" x="172" y="352" style="fill:rgb(0,0,200);stroke:none"/>
<rect width="15" height="52" x="187" y="352" style="fill:rgb(0,0,200);stroke:none"/>
<rect width="15" height="52" x="202" y="352" style="fill:rgb(0,0,200);stroke:none"/>
<rect width="15" height="52" x="217" y="352" style="fill:rgb(0,0,200);stroke:none"/>
<rect width="15" height="52" x="232" y="352" style="fill:rgb(0,0,200);stroke:none"/>
<rect width="15" height="52" x="247" y="352" style="fill:rgb(0,0,200);stroke:none"/>
<rect width="15" height="52" x="262" y="352" style="fill:rgb(0,0,200);stroke:none"/>
<rect width="15" height="52" x="277" y="352" style="fill:rgb(0,0,200);stroke:none"/>
<rect width="15" height="52" x="292" y="352" style="fill:rgb(0,0,200);stroke:none"/>
<rect width="15" height="52" x="307" y="352" style="fill:rgb(0,0,200);stroke:none"/>
<rect width="15" height="52" x="322" y="352" style="fill:rgb(0,0,200);stroke:none"/>
<rect width="15" height="52" x="337" y="352" style="fill:rgb(0,0,200);stroke:none"/>
<rect width="15" height="52" x="352" y="352" style="fill:rgb(0,0,200);stroke:none"/>
<rect width="15" height="52" x="367" y="352" style="fill:rgb(0,0,200);stroke:none"/>
<rect width="15" height="52" x="382" y="352" style="fill:rgb(0,0,200);stroke:none"/>
<rect width="15" height="52" x="397" y="352" style="fill:rgb(0,0,200);stroke:none"/>
<rect width="15" height="52" x="412" y="352" style="fill:rgb(0,0,200);stroke:none"/>
<rect width="15" height="52" x="427" y="352" style="fill:rgb(0,0,200);stroke:none"/>
<rect width="15" height="52" x="442" y="352" style="fill:rgb(0,0,200);stroke:none"/>
<rect width="15" height="52" x="457" y="352" style="fill:rgb(0,0,200);stroke:none"/>
<rect width="15" height="52" x="472" y="352" style="fill:rgb(0,0,200);stroke:none"/>
<rect width="15" height="52" x="487" y="352" style="fill:rgb(0,0,200);stroke:none"/>
<rect width="15" height="52" x="502" y="352" style="fill:rgb(0,0,200);stroke:none"/>
<rect width="15" height="52" x="517" y="352" style="fill:rgb(0,0,200);stroke:none"/>
<rect width="15" height="52" x="532" y="352" style="fill:rgb(0,0,200);stroke:none"/>
<rect width="15" height="52" x="547" y="352" style="fill:rgb(0,0,200);stroke:none"/>
<rect width="15" height="52" x="562" y="352" style="fill:rgb(0,0,200);stroke:none"/>
<rect width="15" height="52" x="577" y="352" style="fill:rgb(0,0,200);stroke:none"/>
<rect width="15" height="52" x="592" y="352" style="fill:rgb(0,0,200);stroke:none"/>
<rect width="15" height="52" x="607" y="352" style="fill:rgb(0,0,200);stroke:none"/>
<rect width="15" height="52" x="622" y="352" style="fill:rgb(0,0,200);stroke:none"/>
<rect width="15" height="52" x="637" y="352" style="fill:rgb(0,0,200);stroke:none"/>
<rect width="15" height="52" x="652" y="352" style="fill:rgb(0,0,200);stroke:none"/>
<rect width="15" height="52" x="667" y="352" style="fill:rgb(0,0,200);stroke:none"/>
<rect width="15" height="52" x="682" y="352" style="fill:rgb(0,0,200);stroke:none"/>
<rect width="15" height="52" x="697" y="352" style="fill:rgb(0,0,200);stroke:none"/>
<rect width="15" height="52" x="712" y="352" style="fill:rgb(0,0,200);stroke:none"/>
<rect width="15" height="52" x="727" y="352" style="fill:rgb(0,0,200);stroke:none"/>
<rect width="15" height="52" x="742" y="352" style="fill:rgb(0,0,200);stroke:none"/>
<rect width="15" height="52" x="757" y="352" style="fill:rgb(0,0,200);stroke:none"/>
<rect width="15" height="52" x="37" y="300" style="fill:rgb(0,0,200);stroke:none"/>
<rect width="15" height="52" x="52" y="300" style="fill:rgb(0,0,200);stroke:none"/>
<rect width="15" height="52" x="67" y="300" style="fill:rgb(0,0,200);stroke:none"/>
<rect width="15" height="52" x="82" y="300" style="fill:rgb(0,0,200);stroke:none"/>
<rect width="15" height="52" x="97" y="300" style="fill:rgb(0,0,200);stroke:none"/>
<rect width="15" height="52" x="112" y="300" style="fill:rgb(0,0,200);stroke:none"/>
<rect width="15" height="52" x="127" y="300" style="fill:rgb(0,0,200);stroke:none"/>
<rect width="15" height="52" x="142" y="300" style="fill:rgb(0,0,200);stroke:none"/>
<rect width="15" height="52" x="157" y="300" style="fill:rgb(0,0,200);stroke:none"/>
<rect width="15" height="52" x="172" y="300" style="fill:rgb(0,0,200);stroke:none"/>
<rect width="15" height="52" x="187" y="300" style="fill:rgb(0,0,200);stroke:none"/>
<rect width="15" height="52" x="202" y="300" style="fill:rgb(0,0,200);stroke:none"/>
<rect width="15" height="52" x="217" y="300" style="fill:rgb(0,0,200);stroke:none"/>
<rect width="15" height="52" x="232" y="300" style="fill:rgb(0,0,200);stroke:none"/>
<rect width="15" height="52" x="247" y="300" style="fill:rgb(0,0,200);stroke:none"/>
<rect width="15" height="52" x="262" y="300" style="fill:rgb(0,0,200);stroke:none"/>
<rect width="15" height="52" x="277" y="300" style="fill:rgb(0,0,200);stroke:none"/>
<rect width="15" height="52" x="292" y="300" style="fill:rgb(0,0,200);stroke:none"/>
<rect width="15" height="52" x="307" y="300" style="fill:rgb(0,0,200);stroke:none"/>
<rect width="15" height="52" x="322" y="300" style="fill:rgb(0,0,200);stroke:none"/>
<rect width="15" height="52" x="337" y="300" style="fill:rgb(0,0,200);stroke:none"/>
<rect width="15" height="52" x="352" y="300" style="fill:rgb(0,0,200);stroke:none"/>
<rect width="15" height="52" x="367" y="300" style="fill:rgb(0,0,200);stroke:none"/>
<rect width="15" height="52" x="382" y="300" style="fill:rgb(0,0,200);stroke:none"/>
<rect width="15" height="52" x="397" y="300" style="fill:rgb(0,0,200);stroke:none"/>
<rect width="15" height="52" x="412" y="300" style="fill:rgb(0,0,200);stroke:none"/>
<rect width="15" height="52" x="427" y="300" style="fill:rgb(0,0,200);stroke:none"/>
<rect width="15" height="52" x="442" y="300" style="fill:rgb(0,0,200);stroke:none"/>
<rect width="15" height="52" x="457" y="300" style="fill:rgb(0,0,200);stroke:none"/>
<rect width="15" height="52" x="472" y="300" style="fill:rgb(0,0,200);stroke:none"/>
<rect width="15" height="52" x="487" y="300" style="fill:rgb(0,0,200);stroke:none"/>
<rect width="15" height="52" x="502" y="300" style="fill:rgb(0,0,200);stroke:none"/>
<rect width="15" height="52" x="517" y="300" style="fill:rgb(0,0,200);stroke:none"/>
<rect width="15" height="52" x="532" y="300" style="fill:rgb(0,0,200);stroke:none"/>
<rect width="15" height="52" x="547" y="300" style="fill:rgb(0,0,200);stroke:none"/>
<rect width="15" height="52" x="562" y="300" style="fill:rgb(0,0,200);stroke:none"/>
<rect width="15" height="52" x="577" y="300" style="fill:rgb(0,0,200);stroke:none"/>
<rect width="15" height="52" x="592" y="300" style="fill:rgb(0,0,200);stroke:none"/>
<rect width="15" height="52" x="607" y="300" style="fill:rgb(0,0,200);stroke:none"/>
<rect width="15" height="52" x="622" y="300" style="fill:rgb(0,0,200);stroke:none"/>
<rect width="15" height="52" x="637" y="300" style="fill:rgb(0,0,200);stroke:none"/>
<rect width="15" height="52" x="652" y="300" style="fill:rgb(0,0,200);stroke:none"/>
<rect width="15" height="52" x="667" y="300" style="fill:rgb(0,0,200);stroke:none"/>
<rect width="15" height="52" x="682" y="300" style="fill:rgb(0,0,200);stroke:none"/>
<rect width="15" height="52" x="697" y="300" style="fill:rgb(0,0,200);stroke:none"/>
<rect width="15" height="52" x="712" y="300" style="fill:rgb(0,0,200);stroke:none"/>
<rect width="15" height="52" x="727" y="300" style="fill:rgb(0,0,200);stroke:none"/>
<rect width="15" height="52" x="742" y="300" style="fill:rgb(0,0,200);stroke:none"/>
<rect width="15" height="52" x="757" y="300" style="fill:rgb(0,0,200);stroke:none"/>
<rect width="15" height="52" x="37" y="248" style="fill:rgb(0,0,200);stroke:none"/>
<rect width="15" height="52" x="52" y="248" style="fill:rgb(0,0,200);stroke:none"/>
<rect width="15" height="52" x="67" y="248" style="fill:rgb(0,0,200);stroke:none"/>
<rect width="15" height="52" x="82" y="248" style="fill:rgb(0,0,200);stroke:none"/>
<rect width="15" height="52" x="97" y="248" style="fill:rgb(0,0,200);stroke:none"/>
<rect width="15" height="52" x="112" y="248" style="fill:rgb(0,0,200);stroke:none"/>
<rect width="15" height="52" x="127" y="248" style="fill:rgb(0,0,200);stroke:none"/>
<rect width="15" height="52" x="142" y="248" style="fill:rgb(0,0,200);stroke:none"/>
<rect width="15" height="52" x="157" y="248" style="fill:rgb(0,0,200);stroke:none"/>
<rect width="15" height="52" x="172" y="248" style="fill:rgb(0,0,200);stroke:none"/>
<rect width="15" height="52" x="187" y="248" style="fill:rgb(0,0,200);stroke:none"/>
<rect width="15" height="52" x="202" y="248" style="fill:rgb(0,0,200);stroke:none"/>
<rect width="15" height="52" x="217" y="248" style="fill:rgb(0,0,200);stroke:none"/>
<rect width="15" height="52" x="232" y="248" style="fill:rgb(0,0,200);stroke:none"/>
<rect width="15" height="52" x="247" y="248" style="fill:rgb(0,0,200);stroke:none"/>
<rect width="15" height="52" x="262" y="248" style="fill:rgb(0,4,200);stroke:none"/>
<rect width="15" height="52" x="277" y="248" style="fill:rgb(0,0,200);stroke:none"/>
<rect width="15" height="52" x="292" y="248" style="fill:rgb(0,0,200);stroke:none"/>
<rect width="15" height="52" x="307" y="248" style="fill:rgb(0,4,200);stroke:none"/>
<rect width="15" height="52" x="322" y="248" style="fill:rgb(0,0,200);stroke:none"/>
<rect width="15" height="52" x="337" y="248" style="fill:rgb(0,0,200);stroke:none"/>
<rect width="15" height="52" x="352" y="248" style="fill:rgb(0,4,200);stroke:none"/>
<rect width="15" height="52" x="367" y="248" style="fill:rgb(0,0,200);stroke:none"/>
<rect width="15" height="52" x="382" y="248" style="fill:rgb(0,0,200);stroke:none"/>
<rect width="15" height="52" x="397" y="248" style="fill:rgb(0,0,200);stroke:none"/>
<rect width="15" height="52" x="412" y="248" style="fill:rgb(0,0,200);stroke:none"/>
<rect width="15" height="52" x="427" y="248" style="fill:rgb(0,0,200);stroke:none"/>
<rect width="15" height="52" x="442" y="248" style="fill:rgb(0,0,200);stroke:none"/>
<rect width="15" height="52" x="457" y="248" style="fill:rgb(0,0,200);stroke:none"/>
<rect width="15" height="52" x="472" y="248" style="fill:rgb(0,0,200);stroke:none"/>
<rect width="15" height="52" x="487" y="248" style="fill:rgb(0,0,200);stroke:none"/>
<rect width="15" height="52" x="502" y="248" style="fill:rgb(0,0,200);stroke:none"/>
<rect width="15" height="52" x="517" y="248" style="fill:rgb(0,4,200);stroke:none"/>
<rect width="15" height="52" x="532" y="248" style="fill:rgb(0,4,200);stroke:none"/>
<rect width="15" height="52" x="547" y="248" style="fill:rgb(0,0,200);stroke:none"/>
<rect width="15" height="52" x="562" y="248" style="fill:rgb(0,0,200);stroke:none"/>
<rect width="15" height="52" x="577" y="248" style="fill:rgb(0,4,200);stroke:none"/>
<rect width="15" height="52" x="592" y="248" style="fill:rgb(0,0,200);stroke:none"/>
<rect width="15" height="52" x="607" y="248" style="fill:rgb(0,4,200);stroke:none"/>
<rect width="15" height="52" x="622" y="248" style="fill:rgb(0,0,200);stroke:none"/>
<rect width="15" height="52" x="637" y="248" style="fill:rgb(0,8,200);stroke:none"/>
<rect width="15" height="52" x="652" y="248" style="fill:rgb(0,4,200);stroke:none"/>
<rect width="15" height="52" x="667" y="248" style="fill:rgb(0,8,200);stroke:none"/>
<rect width="15" height="52" x="682" y="248" style="fill:rgb(0,4,200);stroke:none"/>
<rect width="15" height="52" x="697" y="248" style="fill:rgb(0,4,200);stroke:none"/>
<rect width="15" height="52" x="712" y="248" style="fill:rgb(0,4,200);stroke:none"/>
<rect width="15" height="52" x="727" y="248" style="fill:rgb(0,4,200);stroke:none"/>
<rect width="15" height="52" x="742" y="248" style="fill:rgb(0,4,200);stroke:none"/>
<rect width="15" height="52" x="757" y="248" style="fill:rgb(0,4,200);stroke:none"/>
<rect width="15" height="52" x="37" y="196" style="fill:rgb(0,0,200);stroke:none"/>
<rect width="15" height="52" x="52" y="196" style="fill:rgb(0,0,200);stroke:none"/>
<rect width="15" height="52" x="67" y="196" style="fill:rgb(0,0,200);stroke:none"/>
<rect width="15" height="52" x="82" y="196" style="fill:rgb(0,4,200);stroke:none"/>
<rect width="15" height="52" x="97" y="196" style="fill:rgb(0,4,200);stroke:none"/>
<rect width="15" height="52" x="112" y="196" style="fill:rgb(0,4,200);stroke:none"/>
<rect width="15" height="52" x="127" y="196" style="fill:rgb(0,4,200);stroke:none"/>
<rect width="15" height="52" x="142" y="196" style="fill:rgb(0,0,200);stroke:none"/>
<rect width="15" height="52" x="157" y="196" style="fill:rgb(0,4,200);stroke:none"/>
<rect width="15" height="52" x="172" y="196" style="fill:rgb(0,4,200);stroke:none"/>
<rect width="15" height="52" x="187" y="196" style="fill:rgb(0,4,200);stroke:none"/>
<rect width="15" height="52" x="202" y="196" style="fill:rgb(0,4,200);stroke:none"/>
<rect width="15" height="52" x="217" y="196" style="fill:rgb(0,4,200);stroke:none"/>
<rect width="15" height="52" x="232" y="196" style="fill:rgb(0,4,200);stroke:none"/>
<rect width="15" height="52" x="247" y="196" style="fill:rgb(0,4,200);stroke:none"/>
<rect width="15" height="52" x="262" y="196" style="fill:rgb(0,4,200);stroke:none"/>
<rect width="15" height="52" x="277" y="196" style="fill:rgb(0,8,200);stroke:none"/>
<rect width="15" height="52" x="292" y="196" style="fill:rgb(0,12,200);stroke:none"/>
<rect width="15" height="52" x="307" y="196" style="fill:rgb(0,8,200);stroke:none"/>
<rect width="15" height="52" x="322" y="196" style="fill:rgb(0,8,200);stroke:none"/>
<rect width="15" height="52" x="337" y="196" style="fill:rgb(0,12,200);stroke:none"/>
<rect width="15" height="52" x="352" y="196" style="fill:rgb(0,12,200);stroke:none"/>
<rect width="15" height="52" x="367" y="196" style="fill:rgb(0,12,200);stroke:none"/>
<rect width="15" height="52" x="382" y="196" style="fill:rgb(0,16,200);stroke:none"/>
<rect width="15" height="52" x="397" y="196" style="fill:rgb(0,12,200);stroke:none"/>
<rect width="15" height="52" x="412" y="196" style="fill:rgb(0,12,200);stroke:none"/>
<rect width="15" height="52" x="427" y="196" style="fill:rgb(0,16,200);stroke:none"/>
<rect width="15" height="52" x="442" y="196" style="fill:rgb(0,12,200);stroke:none"/>
<rect width="15" height="52" x="457" y="196" style="fill:rgb(0,12,200);stroke:none"/>
<rect width="15" height="52" x="472" y="196" style="fill:rgb(0,12,200);stroke:none"/>
<rect width="15" height="52" x="487" y="196" style="fill:rgb(0,16,200);stroke:none"/>
<rect width="15" height="52" x="502" y="196" style="fill:rgb(0,12,200);stroke:none"/>
<rect width="15" height="52" x="517" y="196" style="fill:rgb(0,12,200);stroke:none"/>
<rect width="15" height="52" x="532" y="196" style="fill:rgb(0,20,200);stroke:none"/>
<rect width="15" height="52" x="547" y="196" style="fill:rgb(0,12,200);stroke:none"/>
<rect width="15" height="52" x="562" y="196" style="fill:rgb(0,8,200);stroke:none"/>
<rect width="15" height="52" x="577" y="196" style="fill:rgb(0,8,200);stroke:none"/>
<rect width="15" height="52" x="592" y="196" style="fill:rgb(0,8,200);stroke:none"/>
<rect width="15" height="52" x="607" y="196" style="fill:rgb(0,12,200);stroke:none"/>
<rect width="15" height="52" x="622" y="196" style="fill:rgb(0,12,200);stroke:none"/>
<rect width="15" height="52" x="637" y="196" style="fill:rgb(0,12,200);stroke:none"/>
<rect width="15" height="52" x="652" y="196" style="fill:rgb(0,12,200);stroke:none"/>
<rect width="15" height="52" x="667" y="196" style="fill:rgb(0,8,200);stroke:none"/>
<rect width="15" height="52" x="682" y="196" style="fill:rgb(0,8,200);stroke:none"/>
<rect width="15" height="52" x="697" y="196" style="fill:rgb(0,16,200);stroke:none"/>
<rect width="15" height="52" x="712" y="196" style="fill:rgb(0,8,200);stroke:none"/>
<rect width="15" height="52" x="727" y="196" style="fill:rgb(0,12,200);stroke:none"/>
<rect width="15" height="52" x="742" y="196" style="fill:rgb(0,8,200);stroke:none"/>
<rect width="15" height="52" x="757" y="196" style="fill:rgb(0,8,200);stroke:none"/>
<rect width="15" height="52" x="37" y="144" style="fill:rgb(0,0,200);stroke:none"/>
<rect width="15" height="52" x="52" y="144" style="fill:rgb(0,8,200);stroke:none"/>
<rect width="15" height="52" x="67" y="144" style="fill:rgb(0,8,200);stroke:none"/>
<rect width="15" height="52" x="82" y="144" style="fill:rgb(0,8,200);stroke:none"/>
<rect width="15" height="52" x="97" y="144" style="fill:rgb(0,4,200);stroke:none"/>
<rect width="15" height="52" x="112" y="144" style="fill:rgb(0,8,200);stroke:none"/>
<rect width="15" height="52" x="127" y="144" style="fill:rgb(0,4,200);stroke:none"/>
<rect width="15" height="52" x="142" y="144" style="fill:rgb(0,4,200);stroke:none"/>
<rect width="15" height="52" x="157" y="144" style="fill:rgb(0,8,200);stroke:none"/>
<rect width="15" height="52" x="172" y="144" style="fill:rgb(0,8,200);stroke:none"/>
<rect width="15" height="52" x="187" y="144" style="fill:rgb(0,8,200);stroke:none"/>
<rect width="15" height="52" x="202" y="144" style="fill:rgb(0,8,200);stroke:none"/>
<rect width="15" height="52" x="217" y="144" style="fill:rgb(0,8,200);stroke:none"/>
<rect width="15" height="52" x="232" y="144" style="fill:rgb(0,12,200);stroke:none"/>
<rect width="15" height="52" x="247" y="144" style="fill:rgb(0,12,200);stroke:none"/>
<rect width="15" height="52" x="262" y="144" style="fill:rgb(0,16,200);stroke:none"/>
<rect width="15" height="52" x="277" y="144" style="fill:rgb(0,12,200);stroke:none"/>
<rect width="15" height="52" x="292" y="144" style="fill:rgb(0,16,200);stroke:none"/>
<rect width="15" height="52" x="307" y="144" style="fill:rgb(0,20,200);stroke:none"/>
<rect width="15" height="52" x="322" y="144" style="fill:rgb(0,12,200);stroke:none"/>
<rect width="15" height="52" x="337" y="144" style="fill:rgb(0,16,200);stroke:none"/>
<rect width="15" height="52" x="352" y="144" style="fill:rgb(0,16,200);stroke:none"/>
<rect width="15" height="52" x="367" y="144" style="fill:rgb(0,16,200);stroke:none"/>
<rect width="15" height="52" x="382" y="144" style="fill:rgb(0,20,200);stroke:none"/>
<rect width="15" height="52" x="397" y="144" style="fill:rgb(0,12,200);stroke:none"/>
<rect width="15" height="52" x="412" y="144" style="fill:rgb(0,8,200);stroke:none"/>
<rect width="15" height="52" x="427" y="144" style="fill:rgb(0,12,200);stroke:none"/>
<rect width="15" height="52" x="442" y="144" style="fill:rgb(0,12,200);stroke:none"/>
<rect width="15" height="52" x="457" y="144" style="fill:rgb(0,12,200);stroke:none"/>
<rect width="15" height="52" x="472" y="144" style="fill:rgb(0,16,200);stroke:none"/>
<rect width="15" height="52" x="487" y="144" style="fill:rgb(0,8,200);stroke:none"/>
<rect width="15" height="52" x="502" y="144" style="fill:rgb(0,16,200);stroke:none"/>
<rect width="15" height="52" x="517" y="144" style="fill:rgb(0,16,200);stroke:none"/>
<rect width="15" height="52" x="532" y="144" style="fill:rgb(0,16,200);stroke:none"/>
<rect width="15" height="52" x="547" y="144" style="fill:rgb(0,16,200);stroke:none"/>
<rect width="15" height="52" x="562" y="144" style="fill:rgb(0,16,200);stroke:none"/>
<rect width="15" height="52" x="577" y="144" style="fill:rgb(0,20,200);stroke:none"/>
<rect width="15" height="52" x="592" y="144" style="fill:rgb(0,16,200);stroke:none"/>
<rect width="15" height="52" x="607" y="144" style="fill:rgb(0,12,200);stroke:none"/>
<rect width="15" height="52" x="622" y="144" style="fill:rgb(0,20,200);stroke:none"/>
<rect width="15" height="52" x="637" y="144" style="fill:rgb(0,12,200);stroke:none"/>
<rect width="15" height="52" x="652" y="144" style="fill:rgb(0,20,200);stroke:none"/>
<rect width="15" height="52" x="667" y="144" style="fill:rgb(0,20,200);stroke:none"/>
<rect width="15" height="52" x="682" y="144" style="fill:rgb(0,16,200);stroke:none"/>
<rect width="15" height="52" x="697" y="144" style="fill:rgb(0,20,200);stroke:none"/>
<rect width="15" height="52" x="712" y="144" style="fill:rgb(0,16,200);stroke:none"/>
<rect width="15" height="52" x="727" y="144" style="fill:rgb(0,24,200);stroke:none"/>
<rect width="15" height="52" x="742" y="144" style="fill:rgb(0,24,200);stroke:none"/>
<rect width="15" height="52" x="757" y="144" style="fill:rgb(0,24,200);stroke:none"/>
<rect width="15" height="52" x="37" y="92" style="fill:rgb(0,0,200);stroke:none"/>
<rect width="15" height="52" x="52" y="92" style="fill:rgb(0,0,200);stroke:none"/>
<rect width="15" height="52" x="67" y="92" style="fill:rgb(0,0,200);stroke:none"/>
<rect width="15" height="52" x="82" y="92" style="fill:rgb(0,0,200);stroke:none"/>
<rect width="15" height="52" x="97" y="92" style="fill:rgb(0,0,200);stroke:none"/>
<rect width="15" height="52" x="112" y="92" style="fill:rgb(0,0,200);stroke:none"/>
<rect width="15" height="52" x="127" y="92" style="fill:rgb(0,0,200);stroke:none"/>
<rect width="15" height="52" x="142" y="92" style="fill:rgb(0,0,200);stroke:none"/>
<rect width="15" height="52" x="157" y="92" style="fill:rgb(0,0,200);stroke:none"/>
<rect width="15" height="52" x="172" y="92" style="fill:rgb(0,0,200);stroke:none"/>
<rect width="15" height="52" x="187" y="92" style="fill:rgb(0,0,200);stroke:none"/>
<rect width="15" height="52" x="202" y="92" style="fill:rgb(0,0,200);stroke:none"/>
<rect width="15" height="52" x="217" y="92" style="fill:rgb(0,0,200);stroke:none"/>
<rect width="15" height="52" x="232" y="92" style="fill:rgb(0,0,200);stroke:none"/>
<rect width="15" height="52" x="247" y="92" style="fill:rgb(0,0,200);stroke:none"/>
<rect width="15" height="52" x="262" y="92" style="fill:rgb(0,0,200);stroke:none"/>
<rect width="15" height="52" x="277" y="92" style="fill:rgb(0,0,200);stroke:none"/>
<rect width="15" height="52" x="292" y="92" style="fill:rgb(0,0,200);stroke:none"/>
<rect width="15" height="52" x="307" y="92" style="fill:rgb(0,0,200);stroke:none"/>
<rect width="15" height="52" x="322" y="92" style="fill:rgb(0,0,200);stroke:none"/>
<rect width="15" height="52" x="337" y="92" style="fill:rgb(0,0,200);stroke:none"/>
<rect width="15" height="52" x="352" y="92" style="fill:rgb(0,0,200);stroke:none"/>
<rect width="15" height="52" x="367" y="92" style="fill:rgb(0,0,200);stroke:none"/>
<rect width="15" height="52" x="382" y="92" style="fill:rgb(0,0,200);stroke:none"/>
<rect width="15" height="52" x="397" y="92" style="fill:rgb(0,0,200);stroke:none"/>
<rect width="15" height="52" x="412" y="92" style="fill:rgb(0,0,200);stroke:none"/>
<rect width="15" height="52" x="427" y="92" style="fill:rgb(0,0,200);stroke:none"/>
<rect width="15" height="52" x="442" y="92" style="fill:rgb(0,0,200);stroke:none"/>
<rect width="15" height="52" x="457" y="92" style="fill:rgb(0,0,200);stroke:none"/>
<rect width="15" height="52" x="472" y="92" style="fill:rgb(0,0,200);stroke:none"/>
<rect width="15" height="52" x="487" y="92" style="fill:rgb(0,0,200);stroke:none"/>
<rect width="15" height="52" x="502" y="92" style="fill:rgb(0,0,200);stroke:none"/>
<rect width="15" height="52" x="517" y="92" style="fill:rgb(0,0,200);stroke:none"/>
<rect width="15" height="52" x="532" y="92" style="fill:rgb(0,0,200);stroke:none"/>
<rect width="15" height="52" x="547" y="92" style="fill:rgb(0,0,200);stroke:none"/>
<rect width="15" height="52" x="562" y="92" style="fill:rgb(0,0,200);stroke:none"/>
<rect width="15" height="52" x="577" y="92" style="fill:rgb(0,0,200);stroke:none"/>
<rect width="15" height="52" x="592" y="92" style="fill:rgb(0,0,200);stroke:none"/>
<rect width="15" height="52" x="607" y="92" style="fill:rgb(0,0,200);stroke:none"/>
<rect width="15" height="52" x="622" y="92" style="fill:rgb(0,0,200);stroke:none"/>
<rect width="15" height="52" x="637" y="92" style="fill:rgb(0,0,200);stroke:none"/>
<rect width="15" height="52" x="652" y="92" style="fill:rgb(0,0,200);stroke:none"/>
<rect width="15" height="52" x="667" y="92" style="fill:rgb(0,0,200);stroke:none"/>
<rect width="15" height="52" x="682" y="92" style="fill:rgb(0,0,200);stroke:none"/>
<rect width="15" height="52" x="697" y="92" style="fill:rgb(0,0,200);stroke:none"/>
<rect width="15" height="52" x="712" y="92" style="fill:rgb(0,0,200);stroke:none"/>
<rect width="15" height="52" x="727" y="92" style="fill:rgb(0,0,200);stroke:none"/>
<rect width="15" height="52" x="742" y="92" style="fill:rgb(0,0,200);stroke:none"/>
<rect width="15" height="52" x="757" y="92" style="fill:rgb(0,0,200);stroke:none"/>
<rect width="15" height="52" x="37" y="40" style="fill:rgb(0,0,200);stroke:none"/>
<rect width="15" height="52" x="52" y="40" style="fill:rgb(0,0,200);stroke:none"/>
<rect width="15" height="52" x="67" y="40" style="fill:rgb(0,0,200);stroke:none"/>
<rect width="15" height="52" x="82" y="40" style="fill:rgb(0,0,200);stroke:none"/>
<rect width="15" height="52" x="97" y="40" style="fill:rgb(0,0,200);stroke:none"/>
<rect width="15" height="52" x="112" y="40" style="fill:rgb(0,0,200);stroke:none"/>
<rect width="15" height="52" x="127" y="40" style="fill:rgb(0,0,200);stroke:none"/>
<rect width="15" height="52" x="142" y="40" style="fill:rgb(0,0,200);stroke:none"/>
<rect width="15" height="52" x="157" y="40" style="fill:rgb(0,0,200);stroke:none"/>
<rect width="15" height="52" x="172" y="40" style="fill:rgb(0,0,200);stroke:none"/>
<rect width="15" height="52" x="187" y="40" style="fill:rgb(0,0,200);stroke:none"/>
<rect width="15" height="52" x="202" y="40" style="fill:rgb(0,0,200);stroke:none"/>
<rect width="15" height="52" x="217" y="40" style="fill:rgb(0,0,200);stroke:none"/>
<rect width="15" height="52" x="232" y="40" style="fill:rgb(0,0,200);stroke:none"/>
<rect width="15" height="52" x="247" y="40" style="fill:rgb(0,0,200);stroke:none"/>
<rect width="15" height="52" x="262" y="40" style="fill:rgb(0,0,200);stroke:none"/>
<rect width="15" height="52" x="277" y="40" style="fill:rgb(0,0,200);stroke:none"/>
<rect width="15" height="52" x="292" y="40" style="fill:rgb(0,0,200);stroke:none"/>
<rect width="15" height="52" x="307" y="40" style="fill:rgb(0,0,200);stroke:none"/>
<rect width="15" height="52" x="322" y="40" style="fill:rgb(0,0,200);stroke:none"/>
<rect width="15" height="52" x="337" y="40" style="fill:rgb(0,0,200);stroke:none"/>
<rect width="15" height="52" x="352" y="40" style="fill:rgb(0,0,200);stroke:none"/>
<rect width="15" height="52" x="367" y="40" style="fill:rgb(0,0,200);stroke:none"/>
<rect width="15" height="52" x="382" y="40" style="fill:rgb(0,0,200);stroke:none"/>
<rect width="15" height="52" x="397" y="40" style="fill:rgb(0,0,200);stroke:none"/>
<rect width="15" height="52" x="412" y="40" style="fill:rgb(0,0,200);stroke:none"/>
<rect width="15" height="52" x="427" y="40" style="fill:rgb(0,0,200);stroke:none"/>
<rect width="15" height="52" x="442" y="40" style="fill:rgb(0,0,200);stroke:none"/>
<rect width="15" height="52" x="457" y="40" style="fill:rgb(0,0,200);stroke:none"/>
<rect width="15" height="52" x="472" y="40" style="fill:rgb(0,0,200);stroke:none"/>
<rect width="15" height="52" x="487" y="40" style="fill:rgb(0,0,200);stroke:none"/>
<rect width="15" height="52" x="502" y="40" style="fill:rgb(0,0,200);stroke:none"/>
<rect width="15" height="52" x="517" y="40" style="fill:rgb(0,0,200);stroke:none"/>
<rect width="15" height="52" x="532" y="40" style="fill:rgb(0,0,200);stroke:none"/>
<rect width="15" height="52" x="547" y="40" style="fill:rgb(0,0,200);stroke:none"/>
<rect width="15" height="52" x="562" y="40" style="fill:rgb(0,0,200);stroke:none"/>
<rect width="15" height="52" x="577" y="40" style="fill:rgb(0,0,200);stroke:none"/>
<rect width="15" height="52" x="592" y="40" style="fill:rgb(0,0,200);stroke:none"/>
<rect width="15" height="52" x="607" y="40" style="fill:rgb(0,0,200);stroke:none"/>
<rect width="15" height="52" x="622" y="40" style="fill:rgb(0,0,200);stroke:none"/>
<rect width="15" height="52" x="637" y="40" style="fill:rgb(0,0,200);stroke:none"/>
<rect width="15" height="52" x="652" y="40" style="fill:rgb(0,0,200);stroke:none"/>
<rect width="15" height="52" x="667" y="40" style="fill:rgb(0,0,200);stroke:none"/>
<rect width="15" height="52" x="682" y="40" style="fill:rgb(0,0,200);stroke:none"/>
<rect width="15" height="52" x="697" y="40" style="fill:rgb(0,0,200);stroke:none"/>
<rect width="15" height="52" x="712" y="40" style="fill:rgb(0,0,200);stroke:none"/>
<rect width="15" height="52" x="727" y="40" style="fill:rgb(0,0,200);stroke:none"/>
<rect width="15" height="52" x="742" y="40" style="fill:rgb(0,0,200);stroke:none"/>
<rect width="15" height="52" x="757" y="40" style="fill:rgb(0,0,200);stroke:none"/>
</svg>
