<?xml version="1.0" standalone="no"?>
<!DOCTYPE svg PUBLIC "-//W3C//DTD SVG 1.1//EN" "http://www.w3.org/Graphics/SVG/1.1/DTD/svg11.dtd">
<svg width="800" height="600" version="1.1" xmlns="http://www.w3.org/2000/svg">
<rect width="800" height="600" x="0" y="0" style="fill:rgb(238,238,238);stroke:none"/>
<rect width="800" height="600" x="0" y="0" style="fill:rgb(255,255,255);stroke:none"/>
<text x="2" y="566" fill="rgb(0,0,0)" font-family="Arial" font-size="12">0</text>
<text x="2" y="537" fill="rgb(0,0,0)" font-family="Arial" font-size="12">2</text>
<text x="2" y="507" fill="rgb(0,0,0)" font-family="Arial" font-size="12">4</text>
<text x="2" y="477" fill="rgb(0,0,0)" font-family="Arial" font-size="12">6</text>
<text x="2" y="448" fill="rgb(0,0,0)" font-family="Arial" font-size="12">8</text>
<text x="2" y="418" fill="rgb(0,0,0)" font-family="Arial" font-size="12">10</text>
<text x="2" y="388" fill="rgb(0,0,0)" font-family="Arial" font-size="12">12</text>
<text x="2" y="358" fill="rgb(0,0,0)" font-family="Arial" font-size="12">14</text>
<text x="2" y="329" fill="rgb(0,0,0)" font-family="Arial" font-size="12">16</text>
<text x="2" y="299" fill="rgb(0,0,0)" font-family="Arial" font-size="12">18</text>
<text x="2" y="269" fill="rgb(0,0,0)" font-family="Arial" font-size="12">20</text>
<text x="2" y="240" fill="rgb(0,0,0)" font-family="Arial" font-size="12">22</text>
<text x="2" y="210" fill="rgb(0,0,0)" font-family="Arial" font-size="12">24</text>
<text x="2" y="180" fill="rgb(0,0,0)" font-family="Arial" font-size="12">26</text>
<text x="2" y="150" fill="rgb(0,0,0)" font-family="Arial" font-size="12">28</text>
<text x="2" y="121" fill="rgb(0,0,0)" font-family="Arial" font-size="12">30</text>
<text x="2" y="91" fill="rgb(0,0,0)" font-family="Arial" font-size="12">32</text>
<text x="2" y="61" fill="rgb(0,0,0)" font-family="Arial" font-size="12">34</text>
<text x="206" y="30" fill="rgb(0,0,0)" font-family="Arial" font-size="12">Quality scores across all bases (Sanger / Illumina 1.9 encoding)</text>
<rect width="17" height="297" x="21" y="263" style="fill:rgb(230,175,175);stroke:none"/>
<rect width="17" height="119" x="21" y="144" style="fill:rgb(230,215,175);stroke:none"/>
<rect width="17" height="104" x="21" y="40" style="fill:rgb(175,230,175);stroke:none"/>
<text x="25" y="575" fill="rgb(0,0,0)" font-family="Arial" font-size="12">1</text>
<rect width="17" height="297" x="38" y="263" style="fill:rgb(230,195,195);stroke:none"/>
<rect width="17" height="119" x="38" y="144" style="fill:rgb(230,220,195);stroke:none"/>
<rect width="17" height="104" x="38" y="40" style="fill:rgb(195,230,195);stroke:none"/>
<text x="42" y="575" fill="rgb(0,0,0)" font-family="Arial" font-size="12">2</text>
<rect width="17" height="297" x="55" y="263" style="fill:rgb(230,175,175);stroke:none"/>
<rect width="17" height="119" x="55" y="144" style="fill:rgb(230,215,175);stroke:none"/>
<rect width="17" height="104" x="55" y="40" style="fill:rgb(175,230,175);stroke:none"/>
<text x="59" y="575" fill="rgb(0,0,0)" font-family="Arial" font-size="12">3</text>
<rect width="17" height="297" x="72" y="263" style="fill:rgb(230,195,195);stroke:none"/>
<rect width="17" height="119" x="72" y="144" style="fill:rgb(230,220,195);stroke:none"/>
<rect width="17" height="104" x="72" y="40" style="fill:rgb(195,230,195);stroke:none"/>
<text x="76" y="575" fill="rgb(0,0,0)" font-family="Arial" font-size="12">4</text>
<rect width="17" height="297" x="89" y="263" style="fill:rgb(230,175,175);stroke:none"/>
<rect width="17" height="119" x="89" y="144" style="fill:rgb(230,215,175);stroke:none"/>
<rect width="17" height="104" x="89" y="40" style="fill:rgb(175,230,175);stroke:none"/>
<text x="93" y="575" fill="rgb(0,0,0)" font-family="Arial" font-size="12">5</text>
<rect width="17" height="297" x="106" y="263" style="fill:rgb(230,195,195);stroke:none"/>
<rect width="17" height="119" x="106" y="144" style="fill:rgb(230,220,195);stroke:none"/>
<rect width="17" height="104" x="106" y="40" style="fill:rgb(195,230,195);stroke:none"/>
<text x="110" y="575" fill="rgb(0,0,0)" font-family="Arial" font-size="12">6</text>
<rect width="17" height="297" x="123" y="263" style="fill:rgb(230,175,175);stroke:none"/>
<rect width="17" height="119" x="123" y="144" style="fill:rgb(230,215,175);stroke:none"/>
<rect width="17" height="104" x="123" y="40" style="fill:rgb(175,230,175);stroke:none"/>
<text x="127" y="575" fill="rgb(0,0,0)" font-family="Arial" font-size="12">7</text>
<rect width="17" height="297" x="140" y="263" style="fill:rgb(230,195,195);stroke:none"/>
<rect width="17" height="119" x="140" y="144" style="fill:rgb(230,220,195);stroke:none"/>
<rect width="17" height="104" x="140" y="40" style="fill:rgb(195,230,195);stroke:none"/>
<text x="144" y="575" fill="rgb(0,0,0)" font-family="Arial" font-size="12">8</text>
<rect width="17" height="297" x="157" y="263" style="fill:rgb(230,175,175);stroke:none"/>
<rect width="17" height="119" x="157" y="144" style="fill:rgb(230,215,175);stroke:none"/>
<rect width="17" height="104" x="157" y="40" style="fill:rgb(175,230,175);stroke:none"/>
<text x="161" y="575" fill="rgb(0,0,0)" font-family="Arial" font-size="12">9</text>
<rect width="17" height="297" x="174" y="263" style="fill:rgb(230,195,195);stroke:none"/>
<rect width="17" height="119" x="174" y="144" style="fill:rgb(230,220,195);stroke:none"/>
<rect width="17" height="104" x="174" y="40" style="fill:rgb(195,230,195);stroke:none"/>
<rect width="17" height="297" x="191" y="263" style="fill:rgb(230,175,175);stroke:none"/>
<rect width="17" height="119" x="191" y="144" style="fill:rgb(230,215,175);stroke:none"/>
<rect width="17" height="104" x="191" y="40" style="fill:rgb(175,230,175);stroke:none"/>
<text x="181" y="575" fill="rgb(0,0,0)" font-family="Arial" font-size="12">12-13</text>
<rect width="17" height="297" x="208" y="263" style="fill:rgb(230,195,195);stroke:none"/>
<rect width="17" height="119" x="208" y="144" style="fill:rgb(230,220,195);stroke:none"/>
<rect width="17" height="104" x="208" y="40" style="fill:rgb(195,230,195);stroke:none"/>
<rect width="17" height="297" x="225" y="263" style="fill:rgb(230,175,175);stroke:none"/>
<rect width="17" height="119" x="225" y="144" style="fill:rgb(230,215,175);stroke:none"/>
<rect width="17" height="104" x="225" y="40" style="fill:rgb(175,230,175);stroke:none"/>
<rect width="17" height="297" x="242" y="263" style="fill:rgb(230,195,195);stroke:none"/>
<rect width="17" height="119" x="242" y="144" style="fill:rgb(230,220,195);stroke:none"/>
<rect width="17" height="104" x="242" y="40" style="fill:rgb(195,230,195);stroke:none"/>
<text x="232" y="575" fill="rgb(0,0,0)" font-family="Arial" font-size="12">18-19</text>
<rect width="17" height="297" x="259" y="263" style="fill:rgb(230,175,175);stroke:none"/>
<rect width="17" height="119" x="259" y="144" style="fill:rgb(230,215,175);stroke:none"/>
<rect width="17" height="104" x="259" y="40" style="fill:rgb(175,230,175);stroke:none"/>
<rect width="17" height="297" x="276" y="263" style="fill:rgb(230,195,195);stroke:none"/>
<rect width="17" height="119" x="276" y="144" style="fill:rgb(230,220,195);stroke:none"/>
<rect width="17" height="104" x="276" y="40" style="fill:rgb(195,230,195);stroke:none"/>
<rect width="17" height="297" x="293" y="263" style="fill:rgb(230,175,175);stroke:none"/>
<rect width="17" height="119" x="293" y="144" style="fill:rgb(230,215,175);stroke:none"/>
<rect width="17" height="104" x="293" y="40" style="fill:rgb(175,230,175);stroke:none"/>
<text x="283" y="575" fill="rgb(0,0,0)" font-family="Arial" font-size="12">24-25</text>
<rect width="17" height="297" x="310" y="263" style="fill:rgb(230,195,195);stroke:none"/>
<rect width="17" height="119" x="310" y="144" style="fill:rgb(230,220,195);stroke:none"/>
<rect width="17" height="104" x="310" y="40" style="fill:rgb(195,230,195);stroke:none"/>
<rect width="17" height="297" x="327" y="263" style="fill:rgb(230,175,175);stroke:none"/>
<rect width="17" height="119" x="327" y="144" style="fill:rgb(230,215,175);stroke:none"/>
<rect width="17" height="104" x="327" y="40" style="fill:rgb(175,230,175);stroke:none"/>
<rect width="17" height="297" x="344" y="263" style="fill:rgb(230,195,195);stroke:none"/>
<rect width="17" height="119" x="344" y="144" style="fill:rgb(230,220,195);stroke:none"/>
<rect width="17" height="104" x="344" y="40" style="fill:rgb(195,230,195);stroke:none"/>
<text x="334" y="575" fill="rgb(0,0,0)" font-family="Arial" font-size="12">30-31</text>
<rect width="17" height="297" x="361" y="263" style="fill:rgb(230,175,175);stroke:none"/>
<rect width="17" height="119" x="361" y="144" style="fill:rgb(230,215,175);stroke:none"/>
<rect width="17" height="104" x="361" y="40" style="fill:rgb(175,230,175);stroke:none"/>
<rect width="17" height="297" x="378" y="263" style="fill:rgb(230,195,195);stroke:none"/>
<rect width="17" height="119" x="378" y="144" style="fill:rgb(230,220,195);stroke:none"/>
<rect width="17" height="104" x="378" y="40" style="fill:rgb(195,230,195);stroke:none"/>
<rect width="17" height="297" x="395" y="263" style="fill:rgb(230,175,175);stroke:none"/>
<rect width="17" height="119" x="395" y="144" style="fill:rgb(230,215,175);stroke:none"/>
<rect width="17" height="104" x="395" y="40" style="fill:rgb(175,230,175);stroke:none"/>
<text x="385" y="575" fill="rgb(0,0,0)" font-family="Arial" font-size="12">36-37</text>
<rect width="17" height="297" x="412" y="263" style="fill:rgb(230,195,195);stroke:none"/>
<rect width="17" height="119" x="412" y="144" style="fill:rgb(230,220,195);stroke:none"/>
<rect width="17" height="104" x="412" y="40" style="fill:rgb(195,230,195);stroke:none"/>
<rect width="17" height="297" x="429" y="263" style="fill:rgb(230,175,175);stroke:none"/>
<rect width="17" height="119" x="429" y="144" style="fill:rgb(230,215,175);stroke:none"/>
<rect width="17" height="104" x="429" y="40" style="fill:rgb(175,230,175);stroke:none"/>
<rect width="17" height="297" x="446" y="263" style="fill:rgb(230,195,195);stroke:none"/>
<rect width="17" height="119" x="446" y="144" style="fill:rgb(230,220,195);stroke:none"/>
<rect width="17" height="104" x="446" y="40" style="fill:rgb(195,230,195);stroke:none"/>
<text x="436" y="575" fill="rgb(0,0,0)" font-family="Arial" font-size="12">42-43</text>
<rect width="17" height="297" x="463" y="263" style="fill:rgb(230,175,175);stroke:none"/>
<rect width="17" height="119" x="463" y="144" style="fill:rgb(230,215,175);stroke:none"/>
<rect width="17" height="104" x="463" y="40" style="fill:rgb(175,230,175);stroke:none"/>
<rect width="17" height="297" x="480" y="263" style="fill:rgb(230,195,195);stroke:none"/>
<rect width="17" height="119" x="480" y="144" style="fill:rgb(230,220,195);stroke:none"/>
<rect width="17" height="104" x="480" y="40" style="fill:rgb(195,230,195);stroke:none"/>
<rect width="17" height="297" x="497" y="263" style="fill:rgb(230,175,175);stroke:none"/>
<rect width="17" height="119" x="497" y="144" style="fill:rgb(230,215,175);stroke:none"/>
<rect width="17" height="104" x="497" y="40" style="fill:rgb(175,230,175);stroke:none"/>
<text x="487" y="575" fill="rgb(0,0,0)" font-family="Arial" font-size="12">48-49</text>
<rect width="17" height="297" x="514" y="263" style="fill:rgb(230,195,195);stroke:none"/>
<rect width="17" height="119" x="514" y="144" style="fill:rgb(230,220,195);stroke:none"/>
<rect width="17" height="104" x="514" y="40" style="fill:rgb(195,230,195);stroke:none"/>
<rect width="17" height="297" x="531" y="263" style="fill:rgb(230,175,175);stroke:none"/>
<rect width="17" height="119" x="531" y="144" style="fill:rgb(230,215,175);stroke:none"/>
<rect width="17" height="104" x="531" y="40" style="fill:rgb(175,230,175);stroke:none"/>
<rect width="17" height="297" x="548" y="263" style="fill:rgb(230,195,195);stroke:none"/>
<rect width="17" height="119" x="548" y="144" style="fill:rgb(230,220,195);stroke:none"/>
<rect width="17" height="104" x="548" y="40" style="fill:rgb(195,230,195);stroke:none"/>
<text x="538" y="575" fill="rgb(0,0,0)" font-family="Arial" font-size="12">54-55</text>
<rect width="17" height="297" x="565" y="263" style="fill:rgb(230,175,175);stroke:none"/>
<rect width="17" height="119" x="565" y="144" style="fill:rgb(230,215,175);stroke:none"/>
<rect width="17" height="104" x="565" y="40" style="fill:rgb(175,230,175);stroke:none"/>
<rect width="17" height="297" x="582" y="263" style="fill:rgb(230,195,195);stroke:none"/>
<rect width="17" height="119" x="582" y="144" style="fill:rgb(230,220,195);stroke:none"/>
<rect width="17" height="104" x="582" y="40" style="fill:rgb(195,230,195);stroke:none"/>
<rect width="17" height="297" x="599" y="263" style="fill:rgb(230,175,175);stroke:none"/>
<rect width="17" height="119" x="599" y="144" style="fill:rgb(230,215,175);stroke:none"/>
<rect width="17" height="104" x="599" y="40" style="fill:rgb(175,230,175);stroke:none"/>
<text x="589" y="575" fill="rgb(0,0,0)" font-family="Arial" font-size="12">60-61</text>
<rect width="17" height="297" x="616" y="263" style="fill:rgb(230,195,195);stroke:none"/>
<rect width="17" height="119" x="616" y="144" style="fill:rgb(230,220,195);stroke:none"/>
<rect width="17" height="104" x="616" y="40" style="fill:rgb(195,230,195);stroke:none"/>
<rect width="17" height="297" x="633" y="263" style="fill:rgb(230,175,175);stroke:none"/>
<rect width="17" height="119" x="633" y="144" style="fill:rgb(230,215,175);stroke:none"/>
<rect width="17" height="104" x="633" y="40" style="fill:rgb(175,230,175);stroke:none"/>
<rect width="17" height="297" x="650" y="263" style="fill:rgb(230,195,195);stroke:none"/>
<rect width="17" height="119" x="650" y="144" style="fill:rgb(230,220,195);stroke:none"/>
<rect width="17" height="104" x="650" y="40" style="fill:rgb(195,230,195);stroke:none"/>
<text x="640" y="575" fill="rgb(0,0,0)" font-family="Arial" font-size="12">66-67</text>
<rect width="17" height="297" x="667" y="263" style="fill:rgb(230,175,175);stroke:none"/>
<rect width="17" height="119" x="667" y="144" style="fill:rgb(230,215,175);stroke:none"/>
<rect width="17" height="104" x="667" y="40" style="fill:rgb(175,230,175);stroke:none"/>
<rect width="17" height="297" x="684" y="263" style="fill:rgb(230,195,195);stroke:none"/>
<rect width="17" height="119" x="684" y="144" style="fill:rgb(230,220,195);stroke:none"/>
<rect width="17" height="104" x="684" y="40" style="fill:rgb(195,230,195);stroke:none"/>
<rect width="17" height="297" x="701" y="263" style="fill:rgb(230,175,175);stroke:none"/>
<rect width="17" height="119" x="701" y="144" style="fill:rgb(230,215,175);stroke:none"/>
<rect width="17" height="104" x="701" y="40" style="fill:rgb(175,230,175);stroke:none"/>
<text x="691" y="575" fill="rgb(0,0,0)" font-family="Arial" font-size="12">72-73</text>
<rect width="17" height="297" x="718" y="263" style="fill:rgb(230,195,195);stroke:none"/>
<rect width="17" height="119" x="718" y="144" style="fill:rgb(230,220,195);stroke:none"/>
<rect width="17" height="104" x="718" y="40" style="fill:rgb(195,230,195);stroke:none"/>
<rect width="17" height="297" x="735" y="263" style="fill:rgb(230,175,175);stroke:none"/>
<rect width="17" height="119" x="735" y="144" style="fill:rgb(230,215,175);stroke:none"/>
<rect width="17" height="104" x="735" y="40" style="fill:rgb(175,230,175);stroke:none"/>
<text x="735" y="575" fill="rgb(0,0,0)" font-family="Arial" font-size="12">76</text>
<line x1="21" y1="560" x2="790" y2="560" stroke="rgb(0,0,0)" stroke-width="1"/>
<line x1="21" y1="560" x2="21" y2="40" stroke="rgb(0,0,0)" stroke-width="1"/>
<text x="336" y="595" fill="rgb(0,0,0)" font-family="Arial" font-size="12">Position in read (bp)</text>
<rect width="13" height="0" x="23" y="55" style="fill:rgb(240,240,0);stroke:none"/>
<rect width="13" height="0" x="23" y="55" rx="0" ry="0" style="fill:none;stroke-width:1;stroke:rgb(0,0,0)"/>
<line x1="29" y1="55" x2="29" y2="55" stroke="rgb(0,0,0)" stroke-width="1"/>
<line x1="23" y1="55" x2="36" y2="55" stroke="rgb(0,0,0)" stroke-width="1"/>
<line x1="29" y1="55" x2="29" y2="55" stroke="rgb(0,0,0)" stroke-width="1"/>
<line x1="23" y1="55" x2="36" y2="55" stroke="rgb(0,0,0)" stroke-width="1"/>
<line x1="23" y1="55" x2="36" y2="55" stroke="rgb(200,0,0)" stroke-width="1"/>
<rect width="13" height="0" x="40" y="55" style="fill:rgb(240,240,0);stroke:none"/>
<rect width="13" height="0" x="40" y="55" rx="0" ry="0" style="fill:none;stroke-width:1;stroke:rgb(0,0,0)"/>
<line x1="46" y1="55" x2="46" y2="55" stroke="rgb(0,0,0)" stroke-width="1"/>
<line x1="40" y1="55" x2="53" y2="55" stroke="rgb(0,0,0)" stroke-width="1"/>
<line x1="46" y1="55" x2="46" y2="55" stroke="rgb(0,0,0)" stroke-width="1"/>
<line x1="40" y1="55" x2="53" y2="55" stroke="rgb(0,0,0)" stroke-width="1"/>
<line x1="40" y1="55" x2="53" y2="55" stroke="rgb(200,0,0)" stroke-width="1"/>
<rect width="13" height="0" x="57" y="55" style="fill:rgb(240,240,0);stroke:none"/>
<rect width="13" height="0" x="57" y="55" rx="0" ry="0" style="fill:none;stroke-width:1;stroke:rgb(0,0,0)"/>
<line x1="63" y1="55" x2="63" y2="55" stroke="rgb(0,0,0)" stroke-width="1"/>
<line x1="57" y1="55" x2="70" y2="55" stroke="rgb(0,0,0)" stroke-width="1"/>
<line x1="63" y1="55" x2="63" y2="55" stroke="rgb(0,0,0)" stroke-width="1"/>
<line x1="57" y1="55" x2="70" y2="55" stroke="rgb(0,0,0)" stroke-width="1"/>
<line x1="57" y1="55" x2="70" y2="55" stroke="rgb(200,0,0)" stroke-width="1"/>
<rect width="13" height="0" x="74" y="55" style="fill:rgb(240,240,0);stroke:none"/>
<rect width="13" height="0" x="74" y="55" rx="0" ry="0" style="fill:none;stroke-width:1;stroke:rgb(0,0,0)"/>
<line x1="80" y1="55" x2="80" y2="55" stroke="rgb(0,0,0)" stroke-width="1"/>
<line x1="74" y1="55" x2="87" y2="55" stroke="rgb(0,0,0)" stroke-width="1"/>
<line x1="80" y1="55" x2="80" y2="55" stroke="rgb(0,0,0)" stroke-width="1"/>
<line x1="74" y1="55" x2="87" y2="55" stroke="rgb(0,0,0)" stroke-width="1"/>
<line x1="74" y1="55" x2="87" y2="55" stroke="rgb(200,0,0)" stroke-width="1"/>
<rect width="13" height="0" x="91" y="55" style="fill:rgb(240,240,0);stroke:none"/>
<rect width="13" height="0" x="91" y="55" rx="0" ry="0" style="fill:none;stroke-width:1;stroke:rgb(0,0,0)"/>
<line x1="97" y1="55" x2="97" y2="55" stroke="rgb(0,0,0)" stroke-width="1"/>
<line x1="91" y1="55" x2="104" y2="55" stroke="rgb(0,0,0)" stroke-width="1"/>
<line x1="97" y1="55" x2="97" y2="55" stroke="rgb(0,0,0)" stroke-width="1"/>
<line x1="91" y1="55" x2="104" y2="55" stroke="rgb(0,0,0)" stroke-width="1"/>
<line x1="91" y1="55" x2="104" y2="55" stroke="rgb(200,0,0)" stroke-width="1"/>
<rect width="13" height="0" x="108" y="55" style="fill:rgb(240,240,0);stroke:none"/>
<rect width="13" height="0" x="108" y="55" rx="0" ry="0" style="fill:none;stroke-width:1;stroke:rgb(0,0,0)"/>
<line x1="114" y1="55" x2="114" y2="55" stroke="rgb(0,0,0)" stroke-width="1"/>
<line x1="108" y1="55" x2="121" y2="55" stroke="rgb(0,0,0)" stroke-width="1"/>
<line x1="114" y1="55" x2="114" y2="55" stroke="rgb(0,0,0)" stroke-width="1"/>
<line x1="108" y1="55" x2="121" y2="55" stroke="rgb(0,0,0)" stroke-width="1"/>
<line x1="108" y1="55" x2="121" y2="55" stroke="rgb(200,0,0)" stroke-width="1"/>
<rect width="13" height="0" x="125" y="55" style="fill:rgb(240,240,0);stroke:none"/>
<rect width="13" height="0" x="125" y="55" rx="0" ry="0" style="fill:none;stroke-width:1;stroke:rgb(0,0,0)"/>
<line x1="131" y1="55" x2="131" y2="55" stroke="rgb(0,0,0)" stroke-width="1"/>
<line x1="125" y1="55" x2="138" y2="55" stroke="rgb(0,0,0)" stroke-width="1"/>
<line x1="131" y1="55" x2="131" y2="55" stroke="rgb(0,0,0)" stroke-width="1"/>
<line x1="125" y1="55" x2="138" y2="55" stroke="rgb(0,0,0)" stroke-width="1"/>
<line x1="125" y1="55" x2="138" y2="55" stroke="rgb(200,0,0)" stroke-width="1"/>
<rect width="13" height="0" x="142" y="55" style="fill:rgb(240,240,0);stroke:none"/>
<rect width="13" height="0" x="142" y="55" rx="0" ry="0" style="fill:none;stroke-width:1;stroke:rgb(0,0,0)"/>
<line x1="148" y1="55" x2="148" y2="55" stroke="rgb(0,0,0)" stroke-width="1"/>
<line x1="142" y1="55" x2="155" y2="55" stroke="rgb(0,0,0)" stroke-width="1"/>
<line x1="148" y1="55" x2="148" y2="55" stroke="rgb(0,0,0)" stroke-width="1"/>
<line x1="142" y1="55" x2="155" y2="55" stroke="rgb(0,0,0)" stroke-width="1"/>
<line x1="142" y1="55" x2="155" y2="55" stroke="rgb(200,0,0)" stroke-width="1"/>
<rect width="13" height="0" x="159" y="55" style="fill:rgb(240,240,0);stroke:none"/>
<rect width="13" height="0" x="159" y="55" rx="0" ry="0" style="fill:none;stroke-width:1;stroke:rgb(0,0,0)"/>
<line x1="165" y1="55" x2="165" y2="55" stroke="rgb(0,0,0)" stroke-width="1"/>
<line x1="159" y1="55" x2="172" y2="55" stroke="rgb(0,0,0)" stroke-width="1"/>
<line x1="165" y1="55" x2="165" y2="55" stroke="rgb(0,0,0)" stroke-width="1"/>
<line x1="159" y1="55" x2="172" y2="55" stroke="rgb(0,0,0)" stroke-width="1"/>
<line x1="159" y1="55" x2="172" y2="55" stroke="rgb(200,0,0)" stroke-width="1"/>
<rect width="13" height="0" x="176" y="55" style="fill:rgb(240,240,0);stroke:none"/>
<rect width="13" height="0" x="176" y="55" rx="0" ry="0" style="fill:none;stroke-width:1;stroke:rgb(0,0,0)"/>
<line x1="182" y1="55" x2="182" y2="55" stroke="rgb(0,0,0)" stroke-width="1"/>
<line x1="176" y1="55" x2="189" y2="55" stroke="rgb(0,0,0)" stroke-width="1"/>
<line x1="182" y1="55" x2="182" y2="55" stroke="rgb(0,0,0)" stroke-width="1"/>
<line x1="176" y1="55" x2="189" y2="55" stroke="rgb(0,0,0)" stroke-width="1"/>
<line x1="176" y1="55" x2="189" y2="55" stroke="rgb(200,0,0)" stroke-width="1"/>
<rect width="13" height="0" x="193" y="55" style="fill:rgb(240,240,0);stroke:none"/>
<rect width="13" height="0" x="193" y="55" rx="0" ry="0" style="fill:none;stroke-width:1;stroke:rgb(0,0,0)"/>
<line x1="199" y1="55" x2="199" y2="55" stroke="rgb(0,0,0)" stroke-width="1"/>
<line x1="193" y1="55" x2="206" y2="55" stroke="rgb(0,0,0)" stroke-width="1"/>
<line x1="199" y1="55" x2="199" y2="55" stroke="rgb(0,0,0)" stroke-width="1"/>
<line x1="193" y1="55" x2="206" y2="55" stroke="rgb(0,0,0)" stroke-width="1"/>
<line x1="193" y1="55" x2="206" y2="55" stroke="rgb(200,0,0)" stroke-width="1"/>
<rect width="13" height="0" x="210" y="55" style="fill:rgb(240,240,0);stroke:none"/>
<rect width="13" height="0" x="210" y="55" rx="0" ry="0" style="fill:none;stroke-width:1;stroke:rgb(0,0,0)"/>
<line x1="216" y1="55" x2="216" y2="55" stroke="rgb(0,0,0)" stroke-width="1"/>
<line x1="210" y1="55" x2="223" y2="55" stroke="rgb(0,0,0)" stroke-width="1"/>
<line x1="216" y1="55" x2="216" y2="55" stroke="rgb(0,0,0)" stroke-width="1"/>
<line x1="210" y1="55" x2="223" y2="55" stroke="rgb(0,0,0)" stroke-width="1"/>
<line x1="210" y1="55" x2="223" y2="55" stroke="rgb(200,0,0)" stroke-width="1"/>
<rect width="13" height="0" x="227" y="55" style="fill:rgb(240,240,0);stroke:none"/>
<rect width="13" height="0" x="227" y="55" rx="0" ry="0" style="fill:none;stroke-width:1;stroke:rgb(0,0,0)"/>
<line x1="233" y1="55" x2="233" y2="55" stroke="rgb(0,0,0)" stroke-width="1"/>
<line x1="227" y1="55" x2="240" y2="55" stroke="rgb(0,0,0)" stroke-width="1"/>
<line x1="233" y1="55" x2="233" y2="55" stroke="rgb(0,0,0)" stroke-width="1"/>
<line x1="227" y1="55" x2="240" y2="55" stroke="rgb(0,0,0)" stroke-width="1"/>
<line x1="227" y1="55" x2="240" y2="55" stroke="rgb(200,0,0)" stroke-width="1"/>
<rect width="13" height="0" x="244" y="55" style="fill:rgb(240,240,0);stroke:none"/>
<rect width="13" height="0" x="244" y="55" rx="0" ry="0" style="fill:none;stroke-width:1;stroke:rgb(0,0,0)"/>
<line x1="250" y1="55" x2="250" y2="55" stroke="rgb(0,0,0)" stroke-width="1"/>
<line x1="244" y1="55" x2="257" y2="55" stroke="rgb(0,0,0)" stroke-width="1"/>
<line x1="250" y1="55" x2="250" y2="55" stroke="rgb(0,0,0)" stroke-width="1"/>
<line x1="244" y1="55" x2="257" y2="55" stroke="rgb(0,0,0)" stroke-width="1"/>
<line x1="244" y1="55" x2="257" y2="55" stroke="rgb(200,0,0)" stroke-width="1"/>
<rect width="13" height="0" x="261" y="55" style="fill:rgb(240,240,0);stroke:none"/>
<rect width="13" height="0" x="261" y="55" rx="0" ry="0" style="fill:none;stroke-width:1;stroke:rgb(0,0,0)"/>
<line x1="267" y1="55" x2="267" y2="55" stroke="rgb(0,0,0)" stroke-width="1"/>
<line x1="261" y1="55" x2="274" y2="55" stroke="rgb(0,0,0)" stroke-width="1"/>
<line x1="267" y1="55" x2="267" y2="55" stroke="rgb(0,0,0)" stroke-width="1"/>
<line x1="261" y1="55" x2="274" y2="55" stroke="rgb(0,0,0)" stroke-width="1"/>
<line x1="261" y1="55" x2="274" y2="55" stroke="rgb(200,0,0)" stroke-width="1"/>
<rect width="13" height="0" x="278" y="55" style="fill:rgb(240,240,0);stroke:none"/>
<rect width="13" height="0" x="278" y="55" rx="0" ry="0" style="fill:none;stroke-width:1;stroke:rgb(0,0,0)"/>
<line x1="284" y1="55" x2="284" y2="55" stroke="rgb(0,0,0)" stroke-width="1"/>
<line x1="278" y1="55" x2="291" y2="55" stroke="rgb(0,0,0)" stroke-width="1"/>
<line x1="284" y1="55" x2="284" y2="55" stroke="rgb(0,0,0)" stroke-width="1"/>
<line x1="278" y1="55" x2="291" y2="55" stroke="rgb(0,0,0)" stroke-width="1"/>
<line x1="278" y1="55" x2="291" y2="55" stroke="rgb(200,0,0)" stroke-width="1"/>
<rect width="13" height="0" x="295" y="55" style="fill:rgb(240,240,0);stroke:none"/>
<rect width="13" height="0" x="295" y="55" rx="0" ry="0" style="fill:none;stroke-width:1;stroke:rgb(0,0,0)"/>
<line x1="301" y1="55" x2="301" y2="55" stroke="rgb(0,0,0)" stroke-width="1"/>
<line x1="295" y1="55" x2="308" y2="55" stroke="rgb(0,0,0)" stroke-width="1"/>
<line x1="301" y1="55" x2="301" y2="55" stroke="rgb(0,0,0)" stroke-width="1"/>
<line x1="295" y1="55" x2="308" y2="55" stroke="rgb(0,0,0)" stroke-width="1"/>
<line x1="295" y1="55" x2="308" y2="55" stroke="rgb(200,0,0)" stroke-width="1"/>
<rect width="13" height="0" x="312" y="55" style="fill:rgb(240,240,0);stroke:none"/>
<rect width="13" height="0" x="312" y="55" rx="0" ry="0" style="fill:none;stroke-width:1;stroke:rgb(0,0,0)"/>
<line x1="318" y1="55" x2="318" y2="55" stroke="rgb(0,0,0)" stroke-width="1"/>
<line x1="312" y1="55" x2="325" y2="55" stroke="rgb(0,0,0)" stroke-width="1"/>
<line x1="318" y1="55" x2="318" y2="55" stroke="rgb(0,0,0)" stroke-width="1"/>
<line x1="312" y1="55" x2="325" y2="55" stroke="rgb(0,0,0)" stroke-width="1"/>
<line x1="312" y1="55" x2="325" y2="55" stroke="rgb(200,0,0)" stroke-width="1"/>
<rect width="13" height="0" x="329" y="55" style="fill:rgb(240,240,0);stroke:none"/>
<rect width="13" height="0" x="329" y="55" rx="0" ry="0" style="fill:none;stroke-width:1;stroke:rgb(0,0,0)"/>
<line x1="335" y1="55" x2="335" y2="55" stroke="rgb(0,0,0)" stroke-width="1"/>
<line x1="329" y1="55" x2="342" y2="55" stroke="rgb(0,0,0)" stroke-width="1"/>
<line x1="335" y1="55" x2="335" y2="55" stroke="rgb(0,0,0)" stroke-width="1"/>
<line x1="329" y1="55" x2="342" y2="55" stroke="rgb(0,0,0)" stroke-width="1"/>
<line x1="329" y1="55" x2="342" y2="55" stroke="rgb(200,0,0)" stroke-width="1"/>
<rect width="13" height="0" x="346" y="55" style="fill:rgb(240,240,0);stroke:none"/>
<rect width="13" height="0" x="346" y="55" rx="0" ry="0" style="fill:none;stroke-width:1;stroke:rgb(0,0,0)"/>
<line x1="352" y1="55" x2="352" y2="55" stroke="rgb(0,0,0)" stroke-width="1"/>
<line x1="346" y1="55" x2="359" y2="55" stroke="rgb(0,0,0)" stroke-width="1"/>
<line x1="352" y1="55" x2="352" y2="55" stroke="rgb(0,0,0)" stroke-width="1"/>
<line x1="346" y1="55" x2="359" y2="55" stroke="rgb(0,0,0)" stroke-width="1"/>
<line x1="346" y1="55" x2="359" y2="55" stroke="rgb(200,0,0)" stroke-width="1"/>
<rect width="13" height="0" x="363" y="55" style="fill:rgb(240,240,0);stroke:none"/>
<rect width="13" height="0" x="363" y="55" rx="0" ry="0" style="fill:none;stroke-width:1;stroke:rgb(0,0,0)"/>
<line x1="369" y1="55" x2="369" y2="55" stroke="rgb(0,0,0)" stroke-width="1"/>
<line x1="363" y1="55" x2="376" y2="55" stroke="rgb(0,0,0)" stroke-width="1"/>
<line x1="369" y1="55" x2="369" y2="55" stroke="rgb(0,0,0)" stroke-width="1"/>
<line x1="363" y1="55" x2="376" y2="55" stroke="rgb(0,0,0)" stroke-width="1"/>
<line x1="363" y1="55" x2="376" y2="55" stroke="rgb(200,0,0)" stroke-width="1"/>
<rect width="13" height="0" x="380" y="55" style="fill:rgb(240,240,0);stroke:none"/>
<rect width="13" height="0" x="380" y="55" rx="0" ry="0" style="fill:none;stroke-width:1;stroke:rgb(0,0,0)"/>
<line x1="386" y1="55" x2="386" y2="55" stroke="rgb(0,0,0)" stroke-width="1"/>
<line x1="380" y1="55" x2="393" y2="55" stroke="rgb(0,0,0)" stroke-width="1"/>
<line x1="386" y1="55" x2="386" y2="55" stroke="rgb(0,0,0)" stroke-width="1"/>
<line x1="380" y1="55" x2="393" y2="55" stroke="rgb(0,0,0)" stroke-width="1"/>
<line x1="380" y1="55" x2="393" y2="55" stroke="rgb(200,0,0)" stroke-width="1"/>
<rect width="13" height="0" x="397" y="55" style="fill:rgb(240,240,0);stroke:none"/>
<rect width="13" height="0" x="397" y="55" rx="0" ry="0" style="fill:none;stroke-width:1;stroke:rgb(0,0,0)"/>
<line x1="403" y1="55" x2="403" y2="55" stroke="rgb(0,0,0)" stroke-width="1"/>
<line x1="397" y1="55" x2="410" y2="55" stroke="rgb(0,0,0)" stroke-width="1"/>
<line x1="403" y1="55" x2="403" y2="55" stroke="rgb(0,0,0)" stroke-width="1"/>
<line x1="397" y1="55" x2="410" y2="55" stroke="rgb(0,0,0)" stroke-width="1"/>
<line x1="397" y1="55" x2="410" y2="55" stroke="rgb(200,0,0)" stroke-width="1"/>
<rect width="13" height="0" x="414" y="55" style="fill:rgb(240,240,0);stroke:none"/>
<rect width="13" height="0" x="414" y="55" rx="0" ry="0" style="fill:none;stroke-width:1;stroke:rgb(0,0,0)"/>
<line x1="420" y1="55" x2="420" y2="55" stroke="rgb(0,0,0)" stroke-width="1"/>
<line x1="414" y1="55" x2="427" y2="55" stroke="rgb(0,0,0)" stroke-width="1"/>
<line x1="420" y1="55" x2="420" y2="55" stroke="rgb(0,0,0)" stroke-width="1"/>
<line x1="414" y1="55" x2="427" y2="55" stroke="rgb(0,0,0)" stroke-width="1"/>
<line x1="414" y1="55" x2="427" y2="55" stroke="rgb(200,0,0)" stroke-width="1"/>
<rect width="13" height="0" x="431" y="55" style="fill:rgb(240,240,0);stroke:none"/>
<rect width="13" height="0" x="431" y="55" rx="0" ry="0" style="fill:none;stroke-width:1;stroke:rgb(0,0,0)"/>
<line x1="437" y1="55" x2="437" y2="55" stroke="rgb(0,0,0)" stroke-width="1"/>
<line x1="431" y1="55" x2="444" y2="55" stroke="rgb(0,0,0)" stroke-width="1"/>
<line x1="437" y1="55" x2="437" y2="55" stroke="rgb(0,0,0)" stroke-width="1"/>
<line x1="431" y1="55" x2="444" y2="55" stroke="rgb(0,0,0)" stroke-width="1"/>
<line x1="431" y1="55" x2="444" y2="55" stroke="rgb(200,0,0)" stroke-width="1"/>
<rect width="13" height="0" x="448" y="55" style="fill:rgb(240,240,0);stroke:none"/>
<rect width="13" height="0" x="448" y="55" rx="0" ry="0" style="fill:none;stroke-width:1;stroke:rgb(0,0,0)"/>
<line x1="454" y1="55" x2="454" y2="55" stroke="rgb(0,0,0)" stroke-width="1"/>
<line x1="448" y1="55" x2="461" y2="55" stroke="rgb(0,0,0)" stroke-width="1"/>
<line x1="454" y1="55" x2="454" y2="55" stroke="rgb(0,0,0)" stroke-width="1"/>
<line x1="448" y1="55" x2="461" y2="55" stroke="rgb(0,0,0)" stroke-width="1"/>
<line x1="448" y1="55" x2="461" y2="55" stroke="rgb(200,0,0)" stroke-width="1"/>
<rect width="13" height="0" x="465" y="55" style="fill:rgb(240,240,0);stroke:none"/>
<rect width="13" height="0" x="465" y="55" rx="0" ry="0" style="fill:none;stroke-width:1;stroke:rgb(0,0,0)"/>
<line x1="471" y1="55" x2="471" y2="55" stroke="rgb(0,0,0)" stroke-width="1"/>
<line x1="465" y1="55" x2="478" y2="55" stroke="rgb(0,0,0)" stroke-width="1"/>
<line x1="471" y1="55" x2="471" y2="55" stroke="rgb(0,0,0)" stroke-width="1"/>
<line x1="465" y1="55" x2="478" y2="55" stroke="rgb(0,0,0)" stroke-width="1"/>
<line x1="465" y1="55" x2="478" y2="55" stroke="rgb(200,0,0)" stroke-width="1"/>
<rect width="13" height="0" x="482" y="55" style="fill:rgb(240,240,0);stroke:none"/>
<rect width="13" height="0" x="482" y="55" rx="0" ry="0" style="fill:none;stroke-width:1;stroke:rgb(0,0,0)"/>
<line x1="488" y1="55" x2="488" y2="55" stroke="rgb(0,0,0)" stroke-width="1"/>
<line x1="482" y1="55" x2="495" y2="55" stroke="rgb(0,0,0)" stroke-width="1"/>
<line x1="488" y1="55" x2="488" y2="55" stroke="rgb(0,0,0)" stroke-width="1"/>
<line x1="482" y1="55" x2="495" y2="55" stroke="rgb(0,0,0)" stroke-width="1"/>
<line x1="482" y1="55" x2="495" y2="55" stroke="rgb(200,0,0)" stroke-width="1"/>
<rect width="13" height="0" x="499" y="55" style="fill:rgb(240,240,0);stroke:none"/>
<rect width="13" height="0" x="499" y="55" rx="0" ry="0" style="fill:none;stroke-width:1;stroke:rgb(0,0,0)"/>
<line x1="505" y1="55" x2="505" y2="55" stroke="rgb(0,0,0)" stroke-width="1"/>
<line x1="499" y1="55" x2="512" y2="55" stroke="rgb(0,0,0)" stroke-width="1"/>
<line x1="505" y1="55" x2="505" y2="55" stroke="rgb(0,0,0)" stroke-width="1"/>
<line x1="499" y1="55" x2="512" y2="55" stroke="rgb(0,0,0)" stroke-width="1"/>
<line x1="499" y1="55" x2="512" y2="55" stroke="rgb(200,0,0)" stroke-width="1"/>
<rect width="13" height="0" x="516" y="55" style="fill:rgb(240,240,0);stroke:none"/>
<rect width="13" height="0" x="516" y="55" rx="0" ry="0" style="fill:none;stroke-width:1;stroke:rgb(0,0,0)"/>
<line x1="522" y1="55" x2="522" y2="55" stroke="rgb(0,0,0)" stroke-width="1"/>
<line x1="516" y1="55" x2="529" y2="55" stroke="rgb(0,0,0)" stroke-width="1"/>
<line x1="522" y1="55" x2="522" y2="55" stroke="rgb(0,0,0)" stroke-width="1"/>
<line x1="516" y1="55" x2="529" y2="55" stroke="rgb(0,0,0)" stroke-width="1"/>
<line x1="516" y1="55" x2="529" y2="55" stroke="rgb(200,0,0)" stroke-width="1"/>
<rect width="13" height="0" x="533" y="55" style="fill:rgb(240,240,0);stroke:none"/>
<rect width="13" height="0" x="533" y="55" rx="0" ry="0" style="fill:none;stroke-width:1;stroke:rgb(0,0,0)"/>
<line x1="539" y1="55" x2="539" y2="55" stroke="rgb(0,0,0)" stroke-width="1"/>
<line x1="533" y1="55" x2="546" y2="55" stroke="rgb(0,0,0)" stroke-width="1"/>
<line x1="539" y1="55" x2="539" y2="55" stroke="rgb(0,0,0)" stroke-width="1"/>
<line x1="533" y1="55" x2="546" y2="55" stroke="rgb(0,0,0)" stroke-width="1"/>
<line x1="533" y1="55" x2="546" y2="55" stroke="rgb(200,0,0)" stroke-width="1"/>
<rect width="13" height="0" x="550" y="55" style="fill:rgb(240,240,0);stroke:none"/>
<rect width="13" height="0" x="550" y="55" rx="0" ry="0" style="fill:none;stroke-width:1;stroke:rgb(0,0,0)"/>
<line x1="556" y1="55" x2="556" y2="55" stroke="rgb(0,0,0)" stroke-width="1"/>
<line x1="550" y1="55" x2="563" y2="55" stroke="rgb(0,0,0)" stroke-width="1"/>
<line x1="556" y1="55" x2="556" y2="55" stroke="rgb(0,0,0)" stroke-width="1"/>
<line x1="550" y1="55" x2="563" y2="55" stroke="rgb(0,0,0)" stroke-width="1"/>
<line x1="550" y1="55" x2="563" y2="55" stroke="rgb(200,0,0)" stroke-width="1"/>
<rect width="13" height="0" x="567" y="55" style="fill:rgb(240,240,0);stroke:none"/>
<rect width="13" height="0" x="567" y="55" rx="0" ry="0" style="fill:none;stroke-width:1;stroke:rgb(0,0,0)"/>
<line x1="573" y1="55" x2="573" y2="55" stroke="rgb(0,0,0)" stroke-width="1"/>
<line x1="567" y1="55" x2="580" y2="55" stroke="rgb(0,0,0)" stroke-width="1"/>
<line x1="573" y1="55" x2="573" y2="55" stroke="rgb(0,0,0)" stroke-width="1"/>
<line x1="567" y1="55" x2="580" y2="55" stroke="rgb(0,0,0)" stroke-width="1"/>
<line x1="567" y1="55" x2="580" y2="55" stroke="rgb(200,0,0)" stroke-width="1"/>
<rect width="13" height="0" x="584" y="55" style="fill:rgb(240,240,0);stroke:none"/>
<rect width="13" height="0" x="584" y="55" rx="0" ry="0" style="fill:none;stroke-width:1;stroke:rgb(0,0,0)"/>
<line x1="590" y1="55" x2="590" y2="55" stroke="rgb(0,0,0)" stroke-width="1"/>
<line x1="584" y1="55" x2="597" y2="55" stroke="rgb(0,0,0)" stroke-width="1"/>
<line x1="590" y1="55" x2="590" y2="55" stroke="rgb(0,0,0)" stroke-width="1"/>
<line x1="584" y1="55" x2="597" y2="55" stroke="rgb(0,0,0)" stroke-width="1"/>
<line x1="584" y1="55" x2="597" y2="55" stroke="rgb(200,0,0)" stroke-width="1"/>
<rect width="13" height="0" x="601" y="55" style="fill:rgb(240,240,0);stroke:none"/>
<rect width="13" height="0" x="601" y="55" rx="0" ry="0" style="fill:none;stroke-width:1;stroke:rgb(0,0,0)"/>
<line x1="607" y1="55" x2="607" y2="55" stroke="rgb(0,0,0)" stroke-width="1"/>
<line x1="601" y1="55" x2="614" y2="55" stroke="rgb(0,0,0)" stroke-width="1"/>
<line x1="607" y1="55" x2="607" y2="55" stroke="rgb(0,0,0)" stroke-width="1"/>
<line x1="601" y1="55" x2="614" y2="55" stroke="rgb(0,0,0)" stroke-width="1"/>
<line x1="601" y1="55" x2="614" y2="55" stroke="rgb(200,0,0)" stroke-width="1"/>
<rect width="13" height="0" x="618" y="55" style="fill:rgb(240,240,0);stroke:none"/>
<rect width="13" height="0" x="618" y="55" rx="0" ry="0" style="fill:none;stroke-width:1;stroke:rgb(0,0,0)"/>
<line x1="624" y1="55" x2="624" y2="55" stroke="rgb(0,0,0)" stroke-width="1"/>
<line x1="618" y1="55" x2="631" y2="55" stroke="rgb(0,0,0)" stroke-width="1"/>
<line x1="624" y1="55" x2="624" y2="55" stroke="rgb(0,0,0)" stroke-width="1"/>
<line x1="618" y1="55" x2="631" y2="55" stroke="rgb(0,0,0)" stroke-width="1"/>
<line x1="618" y1="55" x2="631" y2="55" stroke="rgb(200,0,0)" stroke-width="1"/>
<rect width="13" height="0" x="635" y="55" style="fill:rgb(240,240,0);stroke:none"/>
<rect width="13" height="0" x="635" y="55" rx="0" ry="0" style="fill:none;stroke-width:1;stroke:rgb(0,0,0)"/>
<line x1="641" y1="55" x2="641" y2="55" stroke="rgb(0,0,0)" stroke-width="1"/>
<line x1="635" y1="55" x2="648" y2="55" stroke="rgb(0,0,0)" stroke-width="1"/>
<line x1="641" y1="55" x2="641" y2="55" stroke="rgb(0,0,0)" stroke-width="1"/>
<line x1="635" y1="55" x2="648" y2="55" stroke="rgb(0,0,0)" stroke-width="1"/>
<line x1="635" y1="55" x2="648" y2="55" stroke="rgb(200,0,0)" stroke-width="1"/>
<rect width="13" height="0" x="652" y="55" style="fill:rgb(240,240,0);stroke:none"/>
<rect width="13" height="0" x="652" y="55" rx="0" ry="0" style="fill:none;stroke-width:1;stroke:rgb(0,0,0)"/>
<line x1="658" y1="55" x2="658" y2="55" stroke="rgb(0,0,0)" stroke-width="1"/>
<line x1="652" y1="55" x2="665" y2="55" stroke="rgb(0,0,0)" stroke-width="1"/>
<line x1="658" y1="55" x2="658" y2="55" stroke="rgb(0,0,0)" stroke-width="1"/>
<line x1="652" y1="55" x2="665" y2="55" stroke="rgb(0,0,0)" stroke-width="1"/>
<line x1="652" y1="55" x2="665" y2="55" stroke="rgb(200,0,0)" stroke-width="1"/>
<rect width="13" height="0" x="669" y="55" style="fill:rgb(240,240,0);stroke:none"/>
<rect width="13" height="0" x="669" y="55" rx="0" ry="0" style="fill:none;stroke-width:1;stroke:rgb(0,0,0)"/>
<line x1="675" y1="55" x2="675" y2="55" stroke="rgb(0,0,0)" stroke-width="1"/>
<line x1="669" y1="55" x2="682" y2="55" stroke="rgb(0,0,0)" stroke-width="1"/>
<line x1="675" y1="55" x2="675" y2="55" stroke="rgb(0,0,0)" stroke-width="1"/>
<line x1="669" y1="55" x2="682" y2="55" stroke="rgb(0,0,0)" stroke-width="1"/>
<line x1="669" y1="55" x2="682" y2="55" stroke="rgb(200,0,0)" stroke-width="1"/>
<rect width="13" height="0" x="686" y="55" style="fill:rgb(240,240,0);stroke:none"/>
<rect width="13" height="0" x="686" y="55" rx="0" ry="0" style="fill:none;stroke-width:1;stroke:rgb(0,0,0)"/>
<line x1="692" y1="55" x2="692" y2="55" stroke="rgb(0,0,0)" stroke-width="1"/>
<line x1="686" y1="55" x2="699" y2="55" stroke="rgb(0,0,0)" stroke-width="1"/>
<line x1="692" y1="55" x2="692" y2="55" stroke="rgb(0,0,0)" stroke-width="1"/>
<line x1="686" y1="55" x2="699" y2="55" stroke="rgb(0,0,0)" stroke-width="1"/>
<line x1="686" y1="55" x2="699" y2="55" stroke="rgb(200,0,0)" stroke-width="1"/>
<rect width="13" height="0" x="703" y="55" style="fill:rgb(240,240,0);stroke:none"/>
<rect width="13" height="0" x="703" y="55" rx="0" ry="0" style="fill:none;stroke-width:1;stroke:rgb(0,0,0)"/>
<line x1="709" y1="55" x2="709" y2="55" stroke="rgb(0,0,0)" stroke-width="1"/>
<line x1="703" y1="55" x2="716" y2="55" stroke="rgb(0,0,0)" stroke-width="1"/>
<line x1="709" y1="55" x2="709" y2="55" stroke="rgb(0,0,0)" stroke-width="1"/>
<line x1="703" y1="55" x2="716" y2="55" stroke="rgb(0,0,0)" stroke-width="1"/>
<line x1="703" y1="55" x2="716" y2="55" stroke="rgb(200,0,0)" stroke-width="1"/>
<rect width="13" height="0" x="720" y="55" style="fill:rgb(240,240,0);stroke:none"/>
<rect width="13" height="0" x="720" y="55" rx="0" ry="0" style="fill:none;stroke-width:1;stroke:rgb(0,0,0)"/>
<line x1="726" y1="55" x2="726" y2="55" stroke="rgb(0,0,0)" stroke-width="1"/>
<line x1="720" y1="55" x2="733" y2="55" stroke="rgb(0,0,0)" stroke-width="1"/>
<line x1="726" y1="55" x2="726" y2="55" stroke="rgb(0,0,0)" stroke-width="1"/>
<line x1="720" y1="55" x2="733" y2="55" stroke="rgb(0,0,0)" stroke-width="1"/>
<line x1="720" y1="55" x2="733" y2="55" stroke="rgb(200,0,0)" stroke-width="1"/>
<rect width="13" height="0" x="737" y="55" style="fill:rgb(240,240,0);stroke:none"/>
<rect width="13" height="0" x="737" y="55" rx="0" ry="0" style="fill:none;stroke-width:1;stroke:rgb(0,0,0)"/>
<line x1="743" y1="55" x2="743" y2="55" stroke="rgb(0,0,0)" stroke-width="1"/>
<line x1="737" y1="55" x2="750" y2="55" stroke="rgb(0,0,0)" stroke-width="1"/>
<line x1="743" y1="55" x2="743" y2="55" stroke="rgb(0,0,0)" stroke-width="1"/>
<line x1="737" y1="55" x2="750" y2="55" stroke="rgb(0,0,0)" stroke-width="1"/>
<line x1="737" y1="55" x2="750" y2="55" stroke="rgb(200,0,0)" stroke-width="1"/>
<line x1="29" y1="71" x2="46" y2="82" stroke="rgb(0,0,200)" stroke-width="1"/>
<line x1="46" y1="82" x2="63" y2="68" stroke="rgb(0,0,200)" stroke-width="1"/>
<line x1="63" y1="68" x2="80" y2="68" stroke="rgb(0,0,200)" stroke-width="1"/>
<line x1="80" y1="68" x2="97" y2="77" stroke="rgb(0,0,200)" stroke-width="1"/>
<line x1="97" y1="77" x2="114" y2="66" stroke="rgb(0,0,200)" stroke-width="1"/>
<line x1="114" y1="66" x2="131" y2="65" stroke="rgb(0,0,200)" stroke-width="1"/>
<line x1="131" y1="65" x2="148" y2="67" stroke="rgb(0,0,200)" stroke-width="1"/>
<line x1="148" y1="67" x2="165" y2="64" stroke="rgb(0,0,200)" stroke-width="1"/>
<line x1="165" y1="64" x2="182" y2="63" stroke="rgb(0,0,200)" stroke-width="1"/>
<line x1="182" y1="63" x2="199" y2="64" stroke="rgb(0,0,200)" stroke-width="1"/>
<line x1="199" y1="64" x2="216" y2="65" stroke="rgb(0,0,200)" stroke-width="1"/>
<line x1="216" y1="65" x2="233" y2="65" stroke="rgb(0,0,200)" stroke-width="1"/>
<line x1="233" y1="65" x2="250" y2="65" stroke="rgb(0,0,200)" stroke-width="1"/>
<line x1="250" y1="65" x2="267" y2="65" stroke="rgb(0,0,200)" stroke-width="1"/>
<line x1="267" y1="65" x2="284" y2="65" stroke="rgb(0,0,200)" stroke-width="1"/>
<line x1="284" y1="65" x2="301" y2="65" stroke="rgb(0,0,200)" stroke-width="1"/>
<line x1="301" y1="65" x2="318" y2="64" stroke="rgb(0,0,200)" stroke-width="1"/>
<line x1="318" y1="64" x2="335" y2="64" stroke="rgb(0,0,200)" stroke-width="1"/>
<line x1="335" y1="64" x2="352" y2="65" stroke="rgb(0,0,200)" stroke-width="1"/>
<line x1="352" y1="65" x2="369" y2="65" stroke="rgb(0,0,200)" stroke-width="1"/>
<line x1="369" y1="65" x2="386" y2="69" stroke="rgb(0,0,200)" stroke-width="1"/>
<line x1="386" y1="69" x2="403" y2="64" stroke="rgb(0,0,200)" stroke-width="1"/>
<line x1="403" y1="64" x2="420" y2="64" stroke="rgb(0,0,200)" stroke-width="1"/>
<line x1="420" y1="64" x2="437" y2="65" stroke="rgb(0,0,200)" stroke-width="1"/>
<line x1="437" y1="65" x2="454" y2="65" stroke="rgb(0,0,200)" stroke-width="1"/>
<line x1="454" y1="65" x2="471" y2="65" stroke="rgb(0,0,200)" stroke-width="1"/>
<line x1="471" y1="65" x2="488" y2="65" stroke="rgb(0,0,200)" stroke-width="1"/>
<line x1="488" y1="65" x2="505" y2="65" stroke="rgb(0,0,200)" stroke-width="1"/>
<line x1="505" y1="65" x2="522" y2="65" stroke="rgb(0,0,200)" stroke-width="1"/>
<line x1="522" y1="65" x2="539" y2="65" stroke="rgb(0,0,200)" stroke-width="1"/>
<line x1="539" y1="65" x2="556" y2="65" stroke="rgb(0,0,200)" stroke-width="1"/>
<line x1="556" y1="65" x2="573" y2="65" stroke="rgb(0,0,200)" stroke-width="1"/>
<line x1="573" y1="65" x2="590" y2="65" stroke="rgb(0,0,200)" stroke-width="1"/>
<line x1="590" y1="65" x2="607" y2="65" stroke="rgb(0,0,200)" stroke-width="1"/>
<line x1="607" y1="65" x2="624" y2="65" stroke="rgb(0,0,200)" stroke-width="1"/>
<line x1="624" y1="65" x2="641" y2="72" stroke="rgb(0,0,200)" stroke-width="1"/>
<line x1="641" y1="72" x2="658" y2="66" stroke="rgb(0,0,200)" stroke-width="1"/>
<line x1="658" y1="66" x2="675" y2="66" stroke="rgb(0,0,200)" stroke-width="1"/>
<line x1="675" y1="66" x2="692" y2="66" stroke="rgb(0,0,200)" stroke-width="1"/>
<line x1="692" y1="66" x2="709" y2="67" stroke="rgb(0,0,200)" stroke-width="1"/>
<line x1="709" y1="67" x2="726" y2="67" stroke="rgb(0,0,200)" stroke-width="1"/>
<line x1="726" y1="67" x2="743" y2="71" stroke="rgb(0,0,200)" stroke-width="1"/>
</svg>
