<?xml version="1.0" standalone="no"?>
<!DOCTYPE svg PUBLIC "-//W3C//DTD SVG 1.1//EN" "http://www.w3.org/Graphics/SVG/1.1/DTD/svg11.dtd">
<svg width="800" height="600" version="1.1" xmlns="http://www.w3.org/2000/svg">
<rect width="800" height="600" x="0" y="0" style="fill:rgb(238,238,238);stroke:none"/>
<rect width="800" height="600" x="0" y="0" style="fill:rgb(255,255,255);stroke:none"/>
<text x="2" y="566" fill="rgb(0,0,0)" font-family="Arial" font-size="12">0</text>
<text x="2" y="487" fill="rgb(0,0,0)" font-family="Arial" font-size="12">100000</text>
<text x="2" y="408" fill="rgb(0,0,0)" font-family="Arial" font-size="12">200000</text>
<text x="2" y="329" fill="rgb(0,0,0)" font-family="Arial" font-size="12">300000</text>
<text x="2" y="250" fill="rgb(0,0,0)" font-family="Arial" font-size="12">400000</text>
<text x="2" y="171" fill="rgb(0,0,0)" font-family="Arial" font-size="12">500000</text>
<text x="2" y="92" fill="rgb(0,0,0)" font-family="Arial" font-size="12">600000</text>
<text x="282" y="30" fill="rgb(0,0,0)" font-family="Arial" font-size="12">Quality score distribution over all sequences</text>
<line x1="53" y1="560" x2="790" y2="560" stroke="rgb(0,0,0)" stroke-width="1"/>
<line x1="53" y1="560" x2="53" y2="40" stroke="rgb(0,0,0)" stroke-width="1"/>
<text x="281" y="595" fill="rgb(0,0,0)" font-family="Arial" font-size="12">Mean Sequence Quality (Phred Score)</text>
<text x="60" y="575" fill="rgb(0,0,0)" font-family="Arial" font-size="12">2</text>
<rect width="22" height="520" x="75" y="40" style="fill:rgb(230,230,230);stroke:none"/>
<text x="82" y="575" fill="rgb(0,0,0)" font-family="Arial" font-size="12">3</text>
<text x="104" y="575" fill="rgb(0,0,0)" font-family="Arial" font-size="12">4</text>
<rect width="22" height="520" x="119" y="40" style="fill:rgb(230,230,230);stroke:none"/>
<text x="126" y="575" fill="rgb(0,0,0)" font-family="Arial" font-size="12">5</text>
<text x="148" y="575" fill="rgb(0,0,0)" font-family="Arial" font-size="12">6</text>
<rect width="22" height="520" x="163" y="40" style="fill:rgb(230,230,230);stroke:none"/>
<text x="170" y="575" fill="rgb(0,0,0)" font-family="Arial" font-size="12">7</text>
<text x="192" y="575" fill="rgb(0,0,0)" font-family="Arial" font-size="12">8</text>
<rect width="22" height="520" x="207" y="40" style="fill:rgb(230,230,230);stroke:none"/>
<text x="214" y="575" fill="rgb(0,0,0)" font-family="Arial" font-size="12">9</text>
<text x="232" y="575" fill="rgb(0,0,0)" font-family="Arial" font-size="12">10</text>
<rect width="22" height="520" x="251" y="40" style="fill:rgb(230,230,230);stroke:none"/>
<text x="254" y="575" fill="rgb(0,0,0)" font-family="Arial" font-size="12">11</text>
<text x="276" y="575" fill="rgb(0,0,0)" font-family="Arial" font-size="12">12</text>
<rect width="22" height="520" x="295" y="40" style="fill:rgb(230,230,230);stroke:none"/>
<text x="298" y="575" fill="rgb(0,0,0)" font-family="Arial" font-size="12">13</text>
<text x="320" y="575" fill="rgb(0,0,0)" font-family="Arial" font-size="12">14</text>
<rect width="22" height="520" x="339" y="40" style="fill:rgb(230,230,230);stroke:none"/>
<text x="342" y="575" fill="rgb(0,0,0)" font-family="Arial" font-size="12">15</text>
<text x="364" y="575" fill="rgb(0,0,0)" font-family="Arial" font-size="12">16</text>
<rect width="22" height="520" x="383" y="40" style="fill:rgb(230,230,230);stroke:none"/>
<text x="386" y="575" fill="rgb(0,0,0)" font-family="Arial" font-size="12">17</text>
<text x="408" y="575" fill="rgb(0,0,0)" font-family="Arial" font-size="12">18</text>
<rect width="22" height="520" x="427" y="40" style="fill:rgb(230,230,230);stroke:none"/>
<text x="430" y="575" fill="rgb(0,0,0)" font-family="Arial" font-size="12">19</text>
<text x="452" y="575" fill="rgb(0,0,0)" font-family="Arial" font-size="12">20</text>
<rect width="22" height="520" x="471" y="40" style="fill:rgb(230,230,230);stroke:none"/>
<text x="474" y="575" fill="rgb(0,0,0)" font-family="Arial" font-size="12">21</text>
<text x="496" y="575" fill="rgb(0,0,0)" font-family="Arial" font-size="12">22</text>
<rect width="22" height="520" x="515" y="40" style="fill:rgb(230,230,230);stroke:none"/>
<text x="518" y="575" fill="rgb(0,0,0)" font-family="Arial" font-size="12">23</text>
<text x="540" y="575" fill="rgb(0,0,0)" font-family="Arial" font-size="12">24</text>
<rect width="22" height="520" x="559" y="40" style="fill:rgb(230,230,230);stroke:none"/>
<text x="562" y="575" fill="rgb(0,0,0)" font-family="Arial" font-size="12">25</text>
<text x="584" y="575" fill="rgb(0,0,0)" font-family="Arial" font-size="12">26</text>
<rect width="22" height="520" x="603" y="40" style="fill:rgb(230,230,230);stroke:none"/>
<text x="606" y="575" fill="rgb(0,0,0)" font-family="Arial" font-size="12">27</text>
<text x="628" y="575" fill="rgb(0,0,0)" font-family="Arial" font-size="12">28</text>
<rect width="22" height="520" x="647" y="40" style="fill:rgb(230,230,230);stroke:none"/>
<text x="650" y="575" fill="rgb(0,0,0)" font-family="Arial" font-size="12">29</text>
<text x="672" y="575" fill="rgb(0,0,0)" font-family="Arial" font-size="12">30</text>
<rect width="22" height="520" x="691" y="40" style="fill:rgb(230,230,230);stroke:none"/>
<text x="694" y="575" fill="rgb(0,0,0)" font-family="Arial" font-size="12">31</text>
<text x="716" y="575" fill="rgb(0,0,0)" font-family="Arial" font-size="12">32</text>
<rect width="22" height="520" x="735" y="40" style="fill:rgb(230,230,230);stroke:none"/>
<text x="738" y="575" fill="rgb(0,0,0)" font-family="Arial" font-size="12">33</text>
<text x="760" y="575" fill="rgb(0,0,0)" font-family="Arial" font-size="12">34</text>
<line x1="53" y1="560" x2="790" y2="560" stroke="rgb(180,180,180)" stroke-width="1"/>
<line x1="53" y1="481" x2="790" y2="481" stroke="rgb(180,180,180)" stroke-width="1"/>
<line x1="53" y1="402" x2="790" y2="402" stroke="rgb(180,180,180)" stroke-width="1"/>
<line x1="53" y1="323" x2="790" y2="323" stroke="rgb(180,180,180)" stroke-width="1"/>
<line x1="53" y1="244" x2="790" y2="244" stroke="rgb(180,180,180)" stroke-width="1"/>
<line x1="53" y1="165" x2="790" y2="165" stroke="rgb(180,180,180)" stroke-width="1"/>
<line x1="53" y1="86" x2="790" y2="86" stroke="rgb(180,180,180)" stroke-width="1"/>
<line x1="64" y1="560" x2="86" y2="560" stroke="rgb(136,34,85)" stroke-width="1"/>
<line x1="86" y1="560" x2="108" y2="560" stroke="rgb(136,34,85)" stroke-width="1"/>
<line x1="108" y1="560" x2="130" y2="560" stroke="rgb(136,34,85)" stroke-width="1"/>
<line x1="130" y1="560" x2="152" y2="560" stroke="rgb(136,34,85)" stroke-width="1"/>
<line x1="152" y1="560" x2="174" y2="560" stroke="rgb(136,34,85)" stroke-width="1"/>
<line x1="174" y1="560" x2="196" y2="560" stroke="rgb(136,34,85)" stroke-width="1"/>
<line x1="196" y1="560" x2="218" y2="560" stroke="rgb(136,34,85)" stroke-width="1"/>
<line x1="218" y1="560" x2="240" y2="560" stroke="rgb(136,34,85)" stroke-width="1"/>
<line x1="240" y1="560" x2="262" y2="560" stroke="rgb(136,34,85)" stroke-width="1"/>
<line x1="262" y1="560" x2="284" y2="560" stroke="rgb(136,34,85)" stroke-width="1"/>
<line x1="284" y1="560" x2="306" y2="560" stroke="rgb(136,34,85)" stroke-width="1"/>
<line x1="306" y1="560" x2="328" y2="560" stroke="rgb(136,34,85)" stroke-width="1"/>
<line x1="328" y1="560" x2="350" y2="560" stroke="rgb(136,34,85)" stroke-width="1"/>
<line x1="350" y1="560" x2="372" y2="560" stroke="rgb(136,34,85)" stroke-width="1"/>
<line x1="372" y1="560" x2="394" y2="560" stroke="rgb(136,34,85)" stroke-width="1"/>
<line x1="394" y1="560" x2="416" y2="560" stroke="rgb(136,34,85)" stroke-width="1"/>
<line x1="416" y1="560" x2="438" y2="560" stroke="rgb(136,34,85)" stroke-width="1"/>
<line x1="438" y1="560" x2="460" y2="560" stroke="rgb(136,34,85)" stroke-width="1"/>
<line x1="460" y1="560" x2="482" y2="560" stroke="rgb(136,34,85)" stroke-width="1"/>
<line x1="482" y1="560" x2="504" y2="560" stroke="rgb(136,34,85)" stroke-width="1"/>
<line x1="504" y1="560" x2="526" y2="560" stroke="rgb(136,34,85)" stroke-width="1"/>
<line x1="526" y1="560" x2="548" y2="560" stroke="rgb(136,34,85)" stroke-width="1"/>
<line x1="548" y1="560" x2="570" y2="559" stroke="rgb(136,34,85)" stroke-width="1"/>
<line x1="570" y1="559" x2="592" y2="558" stroke="rgb(136,34,85)" stroke-width="1"/>
<line x1="592" y1="558" x2="614" y2="557" stroke="rgb(136,34,85)" stroke-width="1"/>
<line x1="614" y1="557" x2="636" y2="554" stroke="rgb(136,34,85)" stroke-width="1"/>
<line x1="636" y1="554" x2="658" y2="550" stroke="rgb(136,34,85)" stroke-width="1"/>
<line x1="658" y1="550" x2="680" y2="546" stroke="rgb(136,34,85)" stroke-width="1"/>
<line x1="680" y1="546" x2="702" y2="536" stroke="rgb(136,34,85)" stroke-width="1"/>
<line x1="702" y1="536" x2="724" y2="485" stroke="rgb(136,34,85)" stroke-width="1"/>
<line x1="724" y1="485" x2="746" y2="40" stroke="rgb(136,34,85)" stroke-width="1"/>
<line x1="746" y1="40" x2="768" y2="425" stroke="rgb(136,34,85)" stroke-width="1"/>
<rect width="183" height="23" x="607" y="40" style="fill:rgb(255,255,255);stroke:none"/>
<rect width="183" height="23" x="607" y="40" rx="0" ry="0" style="fill:none;stroke-width:1;stroke:rgb(192,192,192)"/>
<text x="610" y="55" fill="rgb(136,34,85)" font-family="Arial" font-size="12" font-weight="bold">Average Quality per read</text>
</svg>
