<?xml version="1.0" standalone="no"?>
<!DOCTYPE svg PUBLIC "-//W3C//DTD SVG 1.1//EN" "http://www.w3.org/Graphics/SVG/1.1/DTD/svg11.dtd">
<svg width="800" height="600" version="1.1" xmlns="http://www.w3.org/2000/svg">
<rect width="800" height="600" x="0" y="0" style="fill:rgb(238,238,238);stroke:none"/>
<rect width="800" height="600" x="0" y="0" style="fill:rgb(255,255,255);stroke:none"/>
<text x="2" y="566" fill="rgb(0,0,0)" font-family="Arial" font-size="12">0</text>
<text x="2" y="481" fill="rgb(0,0,0)" font-family="Arial" font-size="12">1000000</text>
<text x="2" y="396" fill="rgb(0,0,0)" font-family="Arial" font-size="12">2000000</text>
<text x="2" y="311" fill="rgb(0,0,0)" font-family="Arial" font-size="12">3000000</text>
<text x="2" y="226" fill="rgb(0,0,0)" font-family="Arial" font-size="12">4000000</text>
<text x="2" y="141" fill="rgb(0,0,0)" font-family="Arial" font-size="12">5000000</text>
<text x="2" y="56" fill="rgb(0,0,0)" font-family="Arial" font-size="12">6000000</text>
<text x="270" y="30" fill="rgb(0,0,0)" font-family="Arial" font-size="12">Distribution of sequence lengths over all sequences</text>
<line x1="61" y1="560" x2="790" y2="560" stroke="rgb(0,0,0)" stroke-width="1"/>
<line x1="61" y1="560" x2="61" y2="40" stroke="rgb(0,0,0)" stroke-width="1"/>
<text x="332" y="595" fill="rgb(0,0,0)" font-family="Arial" font-size="12">Sequence Length (bp)</text>
<text x="174" y="575" fill="rgb(0,0,0)" font-family="Arial" font-size="12">89</text>
<rect width="243" height="520" x="304" y="40" style="fill:rgb(230,230,230);stroke:none"/>
<text x="417" y="575" fill="rgb(0,0,0)" font-family="Arial" font-size="12">90</text>
<text x="660" y="575" fill="rgb(0,0,0)" font-family="Arial" font-size="12">91</text>
<line x1="61" y1="560" x2="790" y2="560" stroke="rgb(180,180,180)" stroke-width="1"/>
<line x1="61" y1="475" x2="790" y2="475" stroke="rgb(180,180,180)" stroke-width="1"/>
<line x1="61" y1="390" x2="790" y2="390" stroke="rgb(180,180,180)" stroke-width="1"/>
<line x1="61" y1="305" x2="790" y2="305" stroke="rgb(180,180,180)" stroke-width="1"/>
<line x1="61" y1="220" x2="790" y2="220" stroke="rgb(180,180,180)" stroke-width="1"/>
<line x1="61" y1="135" x2="790" y2="135" stroke="rgb(180,180,180)" stroke-width="1"/>
<line x1="61" y1="50" x2="790" y2="50" stroke="rgb(180,180,180)" stroke-width="1"/>
<line x1="182" y1="560" x2="425" y2="40" stroke="rgb(136,34,85)" stroke-width="1"/>
<line x1="425" y1="40" x2="668" y2="560" stroke="rgb(136,34,85)" stroke-width="1"/>
<rect width="113" height="23" x="677" y="40" style="fill:rgb(255,255,255);stroke:none"/>
<rect width="113" height="23" x="677" y="40" rx="0" ry="0" style="fill:none;stroke-width:1;stroke:rgb(192,192,192)"/>
<text x="680" y="55" fill="rgb(136,34,85)" font-family="Arial" font-size="12" font-weight="bold">Sequence Length</text>
</svg>
