<?xml version="1.0" standalone="no"?>
<!DOCTYPE svg PUBLIC "-//W3C//DTD SVG 1.1//EN" "http://www.w3.org/Graphics/SVG/1.1/DTD/svg11.dtd">
<svg width="800" height="600" version="1.1" xmlns="http://www.w3.org/2000/svg">
<rect width="800" height="600" x="0" y="0" style="fill:rgb(238,238,238);stroke:none"/>
<rect width="800" height="600" x="0" y="0" style="fill:rgb(255,255,255);stroke:none"/>
<text x="2" y="560" fill="rgb(0,0,0)" font-family="Arial" font-size="12">1101</text>
<text x="2" y="486" fill="rgb(0,0,0)" font-family="Arial" font-size="12">1102</text>
<text x="2" y="412" fill="rgb(0,0,0)" font-family="Arial" font-size="12">1103</text>
<text x="2" y="338" fill="rgb(0,0,0)" font-family="Arial" font-size="12">1104</text>
<text x="2" y="263" fill="rgb(0,0,0)" font-family="Arial" font-size="12">1105</text>
<text x="2" y="189" fill="rgb(0,0,0)" font-family="Arial" font-size="12">1106</text>
<text x="2" y="115" fill="rgb(0,0,0)" font-family="Arial" font-size="12">1107</text>
<text x="369" y="30" fill="rgb(0,0,0)" font-family="Arial" font-size="12">Quality per tile</text>
<line x1="37" y1="560" x2="790" y2="560" stroke="rgb(0,0,0)" stroke-width="1"/>
<line x1="37" y1="560" x2="37" y2="40" stroke="rgb(0,0,0)" stroke-width="1"/>
<text x="339" y="595" fill="rgb(0,0,0)" font-family="Arial" font-size="12">Position in read (bp)</text>
<text x="40" y="575" fill="rgb(0,0,0)" font-family="Arial" font-size="12">1</text>
<text x="55" y="575" fill="rgb(0,0,0)" font-family="Arial" font-size="12">2</text>
<text x="70" y="575" fill="rgb(0,0,0)" font-family="Arial" font-size="12">3</text>
<text x="85" y="575" fill="rgb(0,0,0)" font-family="Arial" font-size="12">4</text>
<text x="100" y="575" fill="rgb(0,0,0)" font-family="Arial" font-size="12">5</text>
<text x="115" y="575" fill="rgb(0,0,0)" font-family="Arial" font-size="12">6</text>
<text x="130" y="575" fill="rgb(0,0,0)" font-family="Arial" font-size="12">7</text>
<text x="145" y="575" fill="rgb(0,0,0)" font-family="Arial" font-size="12">8</text>
<text x="160" y="575" fill="rgb(0,0,0)" font-family="Arial" font-size="12">9</text>
<text x="186" y="575" fill="rgb(0,0,0)" font-family="Arial" font-size="12">11</text>
<text x="216" y="575" fill="rgb(0,0,0)" font-family="Arial" font-size="12">13</text>
<text x="246" y="575" fill="rgb(0,0,0)" font-family="Arial" font-size="12">15</text>
<text x="276" y="575" fill="rgb(0,0,0)" font-family="Arial" font-size="12">17</text>
<text x="306" y="575" fill="rgb(0,0,0)" font-family="Arial" font-size="12">19</text>
<text x="336" y="575" fill="rgb(0,0,0)" font-family="Arial" font-size="12">21</text>
<text x="366" y="575" fill="rgb(0,0,0)" font-family="Arial" font-size="12">23</text>
<text x="396" y="575" fill="rgb(0,0,0)" font-family="Arial" font-size="12">25</text>
<text x="426" y="575" fill="rgb(0,0,0)" font-family="Arial" font-size="12">27</text>
<text x="456" y="575" fill="rgb(0,0,0)" font-family="Arial" font-size="12">29</text>
<text x="486" y="575" fill="rgb(0,0,0)" font-family="Arial" font-size="12">31</text>
<text x="516" y="575" fill="rgb(0,0,0)" font-family="Arial" font-size="12">33</text>
<text x="546" y="575" fill="rgb(0,0,0)" font-family="Arial" font-size="12">35</text>
<text x="576" y="575" fill="rgb(0,0,0)" font-family="Arial" font-size="12">37</text>
<text x="606" y="575" fill="rgb(0,0,0)" font-family="Arial" font-size="12">39</text>
<text x="636" y="575" fill="rgb(0,0,0)" font-family="Arial" font-size="12">41</text>
<text x="666" y="575" fill="rgb(0,0,0)" font-family="Arial" font-size="12">43</text>
<text x="696" y="575" fill="rgb(0,0,0)" font-family="Arial" font-size="12">45</text>
<text x="726" y="575" fill="rgb(0,0,0)" font-family="Arial" font-size="12">47</text>
<text x="756" y="575" fill="rgb(0,0,0)" font-family="Arial" font-size="12">49</text>
<rect width="15" height="74" x="37" y="486" style="fill:rgb(0,0,200);stroke:none"/>
<rect width="15" height="74" x="52" y="486" style="fill:rgb(0,0,200);stroke:none"/>
<rect width="15" height="74" x="67" y="486" style="fill:rgb(0,0,200);stroke:none"/>
<rect width="15" height="74" x="82" y="486" style="fill:rgb(0,0,200);stroke:none"/>
<rect width="15" height="74" x="97" y="486" style="fill:rgb(0,0,200);stroke:none"/>
<rect width="15" height="74" x="112" y="486" style="fill:rgb(0,0,200);stroke:none"/>
<rect width="15" height="74" x="127" y="486" style="fill:rgb(0,0,200);stroke:none"/>
<rect width="15" height="74" x="142" y="486" style="fill:rgb(0,0,200);stroke:none"/>
<rect width="15" height="74" x="157" y="486" style="fill:rgb(0,0,200);stroke:none"/>
<rect width="15" height="74" x="172" y="486" style="fill:rgb(0,0,200);stroke:none"/>
<rect width="15" height="74" x="187" y="486" style="fill:rgb(0,0,200);stroke:none"/>
<rect width="15" height="74" x="202" y="486" style="fill:rgb(0,0,200);stroke:none"/>
<rect width="15" height="74" x="217" y="486" style="fill:rgb(0,0,200);stroke:none"/>
<rect width="15" height="74" x="232" y="486" style="fill:rgb(0,0,200);stroke:none"/>
<rect width="15" height="74" x="247" y="486" style="fill:rgb(0,0,200);stroke:none"/>
<rect width="15" height="74" x="262" y="486" style="fill:rgb(0,0,200);stroke:none"/>
<rect width="15" height="74" x="277" y="486" style="fill:rgb(0,0,200);stroke:none"/>
<rect width="15" height="74" x="292" y="486" style="fill:rgb(0,0,200);stroke:none"/>
<rect width="15" height="74" x="307" y="486" style="fill:rgb(0,0,200);stroke:none"/>
<rect width="15" height="74" x="322" y="486" style="fill:rgb(0,0,200);stroke:none"/>
<rect width="15" height="74" x="337" y="486" style="fill:rgb(0,0,200);stroke:none"/>
<rect width="15" height="74" x="352" y="486" style="fill:rgb(0,0,200);stroke:none"/>
<rect width="15" height="74" x="367" y="486" style="fill:rgb(0,0,200);stroke:none"/>
<rect width="15" height="74" x="382" y="486" style="fill:rgb(0,0,200);stroke:none"/>
<rect width="15" height="74" x="397" y="486" style="fill:rgb(0,0,200);stroke:none"/>
<rect width="15" height="74" x="412" y="486" style="fill:rgb(0,0,200);stroke:none"/>
<rect width="15" height="74" x="427" y="486" style="fill:rgb(0,0,200);stroke:none"/>
<rect width="15" height="74" x="442" y="486" style="fill:rgb(0,0,200);stroke:none"/>
<rect width="15" height="74" x="457" y="486" style="fill:rgb(0,0,200);stroke:none"/>
<rect width="15" height="74" x="472" y="486" style="fill:rgb(0,0,200);stroke:none"/>
<rect width="15" height="74" x="487" y="486" style="fill:rgb(0,0,200);stroke:none"/>
<rect width="15" height="74" x="502" y="486" style="fill:rgb(0,0,200);stroke:none"/>
<rect width="15" height="74" x="517" y="486" style="fill:rgb(0,0,200);stroke:none"/>
<rect width="15" height="74" x="532" y="486" style="fill:rgb(0,0,200);stroke:none"/>
<rect width="15" height="74" x="547" y="486" style="fill:rgb(0,0,200);stroke:none"/>
<rect width="15" height="74" x="562" y="486" style="fill:rgb(0,0,200);stroke:none"/>
<rect width="15" height="74" x="577" y="486" style="fill:rgb(0,0,200);stroke:none"/>
<rect width="15" height="74" x="592" y="486" style="fill:rgb(0,0,200);stroke:none"/>
<rect width="15" height="74" x="607" y="486" style="fill:rgb(0,0,200);stroke:none"/>
<rect width="15" height="74" x="622" y="486" style="fill:rgb(0,0,200);stroke:none"/>
<rect width="15" height="74" x="637" y="486" style="fill:rgb(0,0,200);stroke:none"/>
<rect width="15" height="74" x="652" y="486" style="fill:rgb(0,0,200);stroke:none"/>
<rect width="15" height="74" x="667" y="486" style="fill:rgb(0,0,200);stroke:none"/>
<rect width="15" height="74" x="682" y="486" style="fill:rgb(0,0,200);stroke:none"/>
<rect width="15" height="74" x="697" y="486" style="fill:rgb(0,0,200);stroke:none"/>
<rect width="15" height="74" x="712" y="486" style="fill:rgb(0,0,200);stroke:none"/>
<rect width="15" height="74" x="727" y="486" style="fill:rgb(0,0,200);stroke:none"/>
<rect width="15" height="74" x="742" y="486" style="fill:rgb(0,0,200);stroke:none"/>
<rect width="15" height="74" x="757" y="486" style="fill:rgb(0,0,200);stroke:none"/>
<rect width="15" height="74" x="37" y="412" style="fill:rgb(0,0,200);stroke:none"/>
<rect width="15" height="74" x="52" y="412" style="fill:rgb(0,0,200);stroke:none"/>
<rect width="15" height="74" x="67" y="412" style="fill:rgb(0,0,200);stroke:none"/>
<rect width="15" height="74" x="82" y="412" style="fill:rgb(0,0,200);stroke:none"/>
<rect width="15" height="74" x="97" y="412" style="fill:rgb(0,0,200);stroke:none"/>
<rect width="15" height="74" x="112" y="412" style="fill:rgb(0,0,200);stroke:none"/>
<rect width="15" height="74" x="127" y="412" style="fill:rgb(0,0,200);stroke:none"/>
<rect width="15" height="74" x="142" y="412" style="fill:rgb(0,0,200);stroke:none"/>
<rect width="15" height="74" x="157" y="412" style="fill:rgb(0,0,200);stroke:none"/>
<rect width="15" height="74" x="172" y="412" style="fill:rgb(0,0,200);stroke:none"/>
<rect width="15" height="74" x="187" y="412" style="fill:rgb(0,0,200);stroke:none"/>
<rect width="15" height="74" x="202" y="412" style="fill:rgb(0,0,200);stroke:none"/>
<rect width="15" height="74" x="217" y="412" style="fill:rgb(0,0,200);stroke:none"/>
<rect width="15" height="74" x="232" y="412" style="fill:rgb(0,0,200);stroke:none"/>
<rect width="15" height="74" x="247" y="412" style="fill:rgb(0,0,200);stroke:none"/>
<rect width="15" height="74" x="262" y="412" style="fill:rgb(0,0,200);stroke:none"/>
<rect width="15" height="74" x="277" y="412" style="fill:rgb(0,0,200);stroke:none"/>
<rect width="15" height="74" x="292" y="412" style="fill:rgb(0,0,200);stroke:none"/>
<rect width="15" height="74" x="307" y="412" style="fill:rgb(0,0,200);stroke:none"/>
<rect width="15" height="74" x="322" y="412" style="fill:rgb(0,0,200);stroke:none"/>
<rect width="15" height="74" x="337" y="412" style="fill:rgb(0,0,200);stroke:none"/>
<rect width="15" height="74" x="352" y="412" style="fill:rgb(0,0,200);stroke:none"/>
<rect width="15" height="74" x="367" y="412" style="fill:rgb(0,0,200);stroke:none"/>
<rect width="15" height="74" x="382" y="412" style="fill:rgb(0,0,200);stroke:none"/>
<rect width="15" height="74" x="397" y="412" style="fill:rgb(0,0,200);stroke:none"/>
<rect width="15" height="74" x="412" y="412" style="fill:rgb(0,0,200);stroke:none"/>
<rect width="15" height="74" x="427" y="412" style="fill:rgb(0,0,200);stroke:none"/>
<rect width="15" height="74" x="442" y="412" style="fill:rgb(0,0,200);stroke:none"/>
<rect width="15" height="74" x="457" y="412" style="fill:rgb(0,0,200);stroke:none"/>
<rect width="15" height="74" x="472" y="412" style="fill:rgb(0,0,200);stroke:none"/>
<rect width="15" height="74" x="487" y="412" style="fill:rgb(0,0,200);stroke:none"/>
<rect width="15" height="74" x="502" y="412" style="fill:rgb(0,0,200);stroke:none"/>
<rect width="15" height="74" x="517" y="412" style="fill:rgb(0,0,200);stroke:none"/>
<rect width="15" height="74" x="532" y="412" style="fill:rgb(0,0,200);stroke:none"/>
<rect width="15" height="74" x="547" y="412" style="fill:rgb(0,0,200);stroke:none"/>
<rect width="15" height="74" x="562" y="412" style="fill:rgb(0,0,200);stroke:none"/>
<rect width="15" height="74" x="577" y="412" style="fill:rgb(0,0,200);stroke:none"/>
<rect width="15" height="74" x="592" y="412" style="fill:rgb(0,0,200);stroke:none"/>
<rect width="15" height="74" x="607" y="412" style="fill:rgb(0,0,200);stroke:none"/>
<rect width="15" height="74" x="622" y="412" style="fill:rgb(0,0,200);stroke:none"/>
<rect width="15" height="74" x="637" y="412" style="fill:rgb(0,0,200);stroke:none"/>
<rect width="15" height="74" x="652" y="412" style="fill:rgb(0,0,200);stroke:none"/>
<rect width="15" height="74" x="667" y="412" style="fill:rgb(0,0,200);stroke:none"/>
<rect width="15" height="74" x="682" y="412" style="fill:rgb(0,0,200);stroke:none"/>
<rect width="15" height="74" x="697" y="412" style="fill:rgb(0,0,200);stroke:none"/>
<rect width="15" height="74" x="712" y="412" style="fill:rgb(0,0,200);stroke:none"/>
<rect width="15" height="74" x="727" y="412" style="fill:rgb(0,0,200);stroke:none"/>
<rect width="15" height="74" x="742" y="412" style="fill:rgb(0,0,200);stroke:none"/>
<rect width="15" height="74" x="757" y="412" style="fill:rgb(0,0,200);stroke:none"/>
<rect width="15" height="74" x="37" y="338" style="fill:rgb(0,0,200);stroke:none"/>
<rect width="15" height="74" x="52" y="338" style="fill:rgb(0,0,200);stroke:none"/>
<rect width="15" height="74" x="67" y="338" style="fill:rgb(0,0,200);stroke:none"/>
<rect width="15" height="74" x="82" y="338" style="fill:rgb(0,0,200);stroke:none"/>
<rect width="15" height="74" x="97" y="338" style="fill:rgb(0,0,200);stroke:none"/>
<rect width="15" height="74" x="112" y="338" style="fill:rgb(0,0,200);stroke:none"/>
<rect width="15" height="74" x="127" y="338" style="fill:rgb(0,0,200);stroke:none"/>
<rect width="15" height="74" x="142" y="338" style="fill:rgb(0,0,200);stroke:none"/>
<rect width="15" height="74" x="157" y="338" style="fill:rgb(0,0,200);stroke:none"/>
<rect width="15" height="74" x="172" y="338" style="fill:rgb(0,0,200);stroke:none"/>
<rect width="15" height="74" x="187" y="338" style="fill:rgb(0,0,200);stroke:none"/>
<rect width="15" height="74" x="202" y="338" style="fill:rgb(0,0,200);stroke:none"/>
<rect width="15" height="74" x="217" y="338" style="fill:rgb(0,0,200);stroke:none"/>
<rect width="15" height="74" x="232" y="338" style="fill:rgb(0,0,200);stroke:none"/>
<rect width="15" height="74" x="247" y="338" style="fill:rgb(0,0,200);stroke:none"/>
<rect width="15" height="74" x="262" y="338" style="fill:rgb(0,0,200);stroke:none"/>
<rect width="15" height="74" x="277" y="338" style="fill:rgb(0,0,200);stroke:none"/>
<rect width="15" height="74" x="292" y="338" style="fill:rgb(0,0,200);stroke:none"/>
<rect width="15" height="74" x="307" y="338" style="fill:rgb(0,0,200);stroke:none"/>
<rect width="15" height="74" x="322" y="338" style="fill:rgb(0,0,200);stroke:none"/>
<rect width="15" height="74" x="337" y="338" style="fill:rgb(0,0,200);stroke:none"/>
<rect width="15" height="74" x="352" y="338" style="fill:rgb(0,0,200);stroke:none"/>
<rect width="15" height="74" x="367" y="338" style="fill:rgb(0,0,200);stroke:none"/>
<rect width="15" height="74" x="382" y="338" style="fill:rgb(0,0,200);stroke:none"/>
<rect width="15" height="74" x="397" y="338" style="fill:rgb(0,0,200);stroke:none"/>
<rect width="15" height="74" x="412" y="338" style="fill:rgb(0,0,200);stroke:none"/>
<rect width="15" height="74" x="427" y="338" style="fill:rgb(0,0,200);stroke:none"/>
<rect width="15" height="74" x="442" y="338" style="fill:rgb(0,0,200);stroke:none"/>
<rect width="15" height="74" x="457" y="338" style="fill:rgb(0,0,200);stroke:none"/>
<rect width="15" height="74" x="472" y="338" style="fill:rgb(0,0,200);stroke:none"/>
<rect width="15" height="74" x="487" y="338" style="fill:rgb(0,0,200);stroke:none"/>
<rect width="15" height="74" x="502" y="338" style="fill:rgb(0,0,200);stroke:none"/>
<rect width="15" height="74" x="517" y="338" style="fill:rgb(0,0,200);stroke:none"/>
<rect width="15" height="74" x="532" y="338" style="fill:rgb(0,0,200);stroke:none"/>
<rect width="15" height="74" x="547" y="338" style="fill:rgb(0,0,200);stroke:none"/>
<rect width="15" height="74" x="562" y="338" style="fill:rgb(0,0,200);stroke:none"/>
<rect width="15" height="74" x="577" y="338" style="fill:rgb(0,0,200);stroke:none"/>
<rect width="15" height="74" x="592" y="338" style="fill:rgb(0,0,200);stroke:none"/>
<rect width="15" height="74" x="607" y="338" style="fill:rgb(0,0,200);stroke:none"/>
<rect width="15" height="74" x="622" y="338" style="fill:rgb(0,0,200);stroke:none"/>
<rect width="15" height="74" x="637" y="338" style="fill:rgb(0,0,200);stroke:none"/>
<rect width="15" height="74" x="652" y="338" style="fill:rgb(0,0,200);stroke:none"/>
<rect width="15" height="74" x="667" y="338" style="fill:rgb(0,0,200);stroke:none"/>
<rect width="15" height="74" x="682" y="338" style="fill:rgb(0,0,200);stroke:none"/>
<rect width="15" height="74" x="697" y="338" style="fill:rgb(0,0,200);stroke:none"/>
<rect width="15" height="74" x="712" y="338" style="fill:rgb(0,0,200);stroke:none"/>
<rect width="15" height="74" x="727" y="338" style="fill:rgb(0,0,200);stroke:none"/>
<rect width="15" height="74" x="742" y="338" style="fill:rgb(0,0,200);stroke:none"/>
<rect width="15" height="74" x="757" y="338" style="fill:rgb(0,0,200);stroke:none"/>
<rect width="15" height="75" x="37" y="263" style="fill:rgb(0,0,200);stroke:none"/>
<rect width="15" height="75" x="52" y="263" style="fill:rgb(0,0,200);stroke:none"/>
<rect width="15" height="75" x="67" y="263" style="fill:rgb(0,0,200);stroke:none"/>
<rect width="15" height="75" x="82" y="263" style="fill:rgb(0,0,200);stroke:none"/>
<rect width="15" height="75" x="97" y="263" style="fill:rgb(0,0,200);stroke:none"/>
<rect width="15" height="75" x="112" y="263" style="fill:rgb(0,0,200);stroke:none"/>
<rect width="15" height="75" x="127" y="263" style="fill:rgb(0,0,200);stroke:none"/>
<rect width="15" height="75" x="142" y="263" style="fill:rgb(0,0,200);stroke:none"/>
<rect width="15" height="75" x="157" y="263" style="fill:rgb(0,0,200);stroke:none"/>
<rect width="15" height="75" x="172" y="263" style="fill:rgb(0,0,200);stroke:none"/>
<rect width="15" height="75" x="187" y="263" style="fill:rgb(0,0,200);stroke:none"/>
<rect width="15" height="75" x="202" y="263" style="fill:rgb(0,0,200);stroke:none"/>
<rect width="15" height="75" x="217" y="263" style="fill:rgb(0,0,200);stroke:none"/>
<rect width="15" height="75" x="232" y="263" style="fill:rgb(0,0,200);stroke:none"/>
<rect width="15" height="75" x="247" y="263" style="fill:rgb(0,0,200);stroke:none"/>
<rect width="15" height="75" x="262" y="263" style="fill:rgb(0,0,200);stroke:none"/>
<rect width="15" height="75" x="277" y="263" style="fill:rgb(0,0,200);stroke:none"/>
<rect width="15" height="75" x="292" y="263" style="fill:rgb(0,0,200);stroke:none"/>
<rect width="15" height="75" x="307" y="263" style="fill:rgb(0,0,200);stroke:none"/>
<rect width="15" height="75" x="322" y="263" style="fill:rgb(0,0,200);stroke:none"/>
<rect width="15" height="75" x="337" y="263" style="fill:rgb(0,0,200);stroke:none"/>
<rect width="15" height="75" x="352" y="263" style="fill:rgb(0,0,200);stroke:none"/>
<rect width="15" height="75" x="367" y="263" style="fill:rgb(0,0,200);stroke:none"/>
<rect width="15" height="75" x="382" y="263" style="fill:rgb(0,0,200);stroke:none"/>
<rect width="15" height="75" x="397" y="263" style="fill:rgb(0,0,200);stroke:none"/>
<rect width="15" height="75" x="412" y="263" style="fill:rgb(0,0,200);stroke:none"/>
<rect width="15" height="75" x="427" y="263" style="fill:rgb(0,0,200);stroke:none"/>
<rect width="15" height="75" x="442" y="263" style="fill:rgb(0,0,200);stroke:none"/>
<rect width="15" height="75" x="457" y="263" style="fill:rgb(0,0,200);stroke:none"/>
<rect width="15" height="75" x="472" y="263" style="fill:rgb(0,0,200);stroke:none"/>
<rect width="15" height="75" x="487" y="263" style="fill:rgb(0,0,200);stroke:none"/>
<rect width="15" height="75" x="502" y="263" style="fill:rgb(0,0,200);stroke:none"/>
<rect width="15" height="75" x="517" y="263" style="fill:rgb(0,0,200);stroke:none"/>
<rect width="15" height="75" x="532" y="263" style="fill:rgb(0,0,200);stroke:none"/>
<rect width="15" height="75" x="547" y="263" style="fill:rgb(0,0,200);stroke:none"/>
<rect width="15" height="75" x="562" y="263" style="fill:rgb(0,0,200);stroke:none"/>
<rect width="15" height="75" x="577" y="263" style="fill:rgb(0,0,200);stroke:none"/>
<rect width="15" height="75" x="592" y="263" style="fill:rgb(0,0,200);stroke:none"/>
<rect width="15" height="75" x="607" y="263" style="fill:rgb(0,0,200);stroke:none"/>
<rect width="15" height="75" x="622" y="263" style="fill:rgb(0,0,200);stroke:none"/>
<rect width="15" height="75" x="637" y="263" style="fill:rgb(0,0,200);stroke:none"/>
<rect width="15" height="75" x="652" y="263" style="fill:rgb(0,0,200);stroke:none"/>
<rect width="15" height="75" x="667" y="263" style="fill:rgb(0,0,200);stroke:none"/>
<rect width="15" height="75" x="682" y="263" style="fill:rgb(0,0,200);stroke:none"/>
<rect width="15" height="75" x="697" y="263" style="fill:rgb(0,0,200);stroke:none"/>
<rect width="15" height="75" x="712" y="263" style="fill:rgb(0,0,200);stroke:none"/>
<rect width="15" height="75" x="727" y="263" style="fill:rgb(0,0,200);stroke:none"/>
<rect width="15" height="75" x="742" y="263" style="fill:rgb(0,0,200);stroke:none"/>
<rect width="15" height="75" x="757" y="263" style="fill:rgb(0,0,200);stroke:none"/>
<rect width="15" height="74" x="37" y="189" style="fill:rgb(0,0,200);stroke:none"/>
<rect width="15" height="74" x="52" y="189" style="fill:rgb(0,0,200);stroke:none"/>
<rect width="15" height="74" x="67" y="189" style="fill:rgb(0,0,200);stroke:none"/>
<rect width="15" height="74" x="82" y="189" style="fill:rgb(0,0,200);stroke:none"/>
<rect width="15" height="74" x="97" y="189" style="fill:rgb(0,0,200);stroke:none"/>
<rect width="15" height="74" x="112" y="189" style="fill:rgb(0,0,200);stroke:none"/>
<rect width="15" height="74" x="127" y="189" style="fill:rgb(0,0,200);stroke:none"/>
<rect width="15" height="74" x="142" y="189" style="fill:rgb(0,0,200);stroke:none"/>
<rect width="15" height="74" x="157" y="189" style="fill:rgb(0,0,200);stroke:none"/>
<rect width="15" height="74" x="172" y="189" style="fill:rgb(0,0,200);stroke:none"/>
<rect width="15" height="74" x="187" y="189" style="fill:rgb(0,0,200);stroke:none"/>
<rect width="15" height="74" x="202" y="189" style="fill:rgb(0,0,200);stroke:none"/>
<rect width="15" height="74" x="217" y="189" style="fill:rgb(0,0,200);stroke:none"/>
<rect width="15" height="74" x="232" y="189" style="fill:rgb(0,0,200);stroke:none"/>
<rect width="15" height="74" x="247" y="189" style="fill:rgb(0,0,200);stroke:none"/>
<rect width="15" height="74" x="262" y="189" style="fill:rgb(0,0,200);stroke:none"/>
<rect width="15" height="74" x="277" y="189" style="fill:rgb(0,0,200);stroke:none"/>
<rect width="15" height="74" x="292" y="189" style="fill:rgb(0,0,200);stroke:none"/>
<rect width="15" height="74" x="307" y="189" style="fill:rgb(0,0,200);stroke:none"/>
<rect width="15" height="74" x="322" y="189" style="fill:rgb(0,0,200);stroke:none"/>
<rect width="15" height="74" x="337" y="189" style="fill:rgb(0,0,200);stroke:none"/>
<rect width="15" height="74" x="352" y="189" style="fill:rgb(0,0,200);stroke:none"/>
<rect width="15" height="74" x="367" y="189" style="fill:rgb(0,0,200);stroke:none"/>
<rect width="15" height="74" x="382" y="189" style="fill:rgb(0,0,200);stroke:none"/>
<rect width="15" height="74" x="397" y="189" style="fill:rgb(0,0,200);stroke:none"/>
<rect width="15" height="74" x="412" y="189" style="fill:rgb(0,0,200);stroke:none"/>
<rect width="15" height="74" x="427" y="189" style="fill:rgb(0,0,200);stroke:none"/>
<rect width="15" height="74" x="442" y="189" style="fill:rgb(0,0,200);stroke:none"/>
<rect width="15" height="74" x="457" y="189" style="fill:rgb(0,0,200);stroke:none"/>
<rect width="15" height="74" x="472" y="189" style="fill:rgb(0,0,200);stroke:none"/>
<rect width="15" height="74" x="487" y="189" style="fill:rgb(0,0,200);stroke:none"/>
<rect width="15" height="74" x="502" y="189" style="fill:rgb(0,0,200);stroke:none"/>
<rect width="15" height="74" x="517" y="189" style="fill:rgb(0,0,200);stroke:none"/>
<rect width="15" height="74" x="532" y="189" style="fill:rgb(0,0,200);stroke:none"/>
<rect width="15" height="74" x="547" y="189" style="fill:rgb(0,0,200);stroke:none"/>
<rect width="15" height="74" x="562" y="189" style="fill:rgb(0,0,200);stroke:none"/>
<rect width="15" height="74" x="577" y="189" style="fill:rgb(0,0,200);stroke:none"/>
<rect width="15" height="74" x="592" y="189" style="fill:rgb(0,0,200);stroke:none"/>
<rect width="15" height="74" x="607" y="189" style="fill:rgb(0,0,200);stroke:none"/>
<rect width="15" height="74" x="622" y="189" style="fill:rgb(0,0,200);stroke:none"/>
<rect width="15" height="74" x="637" y="189" style="fill:rgb(0,0,200);stroke:none"/>
<rect width="15" height="74" x="652" y="189" style="fill:rgb(0,0,200);stroke:none"/>
<rect width="15" height="74" x="667" y="189" style="fill:rgb(0,0,200);stroke:none"/>
<rect width="15" height="74" x="682" y="189" style="fill:rgb(0,0,200);stroke:none"/>
<rect width="15" height="74" x="697" y="189" style="fill:rgb(0,0,200);stroke:none"/>
<rect width="15" height="74" x="712" y="189" style="fill:rgb(0,0,200);stroke:none"/>
<rect width="15" height="74" x="727" y="189" style="fill:rgb(0,0,200);stroke:none"/>
<rect width="15" height="74" x="742" y="189" style="fill:rgb(0,0,200);stroke:none"/>
<rect width="15" height="74" x="757" y="189" style="fill:rgb(0,0,200);stroke:none"/>
<rect width="15" height="74" x="37" y="115" style="fill:rgb(0,0,200);stroke:none"/>
<rect width="15" height="74" x="52" y="115" style="fill:rgb(0,4,200);stroke:none"/>
<rect width="15" height="74" x="67" y="115" style="fill:rgb(0,0,200);stroke:none"/>
<rect width="15" height="74" x="82" y="115" style="fill:rgb(0,4,200);stroke:none"/>
<rect width="15" height="74" x="97" y="115" style="fill:rgb(0,0,200);stroke:none"/>
<rect width="15" height="74" x="112" y="115" style="fill:rgb(0,4,200);stroke:none"/>
<rect width="15" height="74" x="127" y="115" style="fill:rgb(0,0,200);stroke:none"/>
<rect width="15" height="74" x="142" y="115" style="fill:rgb(0,0,200);stroke:none"/>
<rect width="15" height="74" x="157" y="115" style="fill:rgb(0,4,200);stroke:none"/>
<rect width="15" height="74" x="172" y="115" style="fill:rgb(0,0,200);stroke:none"/>
<rect width="15" height="74" x="187" y="115" style="fill:rgb(0,0,200);stroke:none"/>
<rect width="15" height="74" x="202" y="115" style="fill:rgb(0,4,200);stroke:none"/>
<rect width="15" height="74" x="217" y="115" style="fill:rgb(0,0,200);stroke:none"/>
<rect width="15" height="74" x="232" y="115" style="fill:rgb(0,4,200);stroke:none"/>
<rect width="15" height="74" x="247" y="115" style="fill:rgb(0,0,200);stroke:none"/>
<rect width="15" height="74" x="262" y="115" style="fill:rgb(0,4,200);stroke:none"/>
<rect width="15" height="74" x="277" y="115" style="fill:rgb(0,0,200);stroke:none"/>
<rect width="15" height="74" x="292" y="115" style="fill:rgb(0,0,200);stroke:none"/>
<rect width="15" height="74" x="307" y="115" style="fill:rgb(0,4,200);stroke:none"/>
<rect width="15" height="74" x="322" y="115" style="fill:rgb(0,4,200);stroke:none"/>
<rect width="15" height="74" x="337" y="115" style="fill:rgb(0,4,200);stroke:none"/>
<rect width="15" height="74" x="352" y="115" style="fill:rgb(0,0,200);stroke:none"/>
<rect width="15" height="74" x="367" y="115" style="fill:rgb(0,4,200);stroke:none"/>
<rect width="15" height="74" x="382" y="115" style="fill:rgb(0,0,200);stroke:none"/>
<rect width="15" height="74" x="397" y="115" style="fill:rgb(0,4,200);stroke:none"/>
<rect width="15" height="74" x="412" y="115" style="fill:rgb(0,0,200);stroke:none"/>
<rect width="15" height="74" x="427" y="115" style="fill:rgb(0,0,200);stroke:none"/>
<rect width="15" height="74" x="442" y="115" style="fill:rgb(0,0,200);stroke:none"/>
<rect width="15" height="74" x="457" y="115" style="fill:rgb(0,0,200);stroke:none"/>
<rect width="15" height="74" x="472" y="115" style="fill:rgb(0,0,200);stroke:none"/>
<rect width="15" height="74" x="487" y="115" style="fill:rgb(0,0,200);stroke:none"/>
<rect width="15" height="74" x="502" y="115" style="fill:rgb(0,0,200);stroke:none"/>
<rect width="15" height="74" x="517" y="115" style="fill:rgb(0,8,200);stroke:none"/>
<rect width="15" height="74" x="532" y="115" style="fill:rgb(0,0,200);stroke:none"/>
<rect width="15" height="74" x="547" y="115" style="fill:rgb(0,0,200);stroke:none"/>
<rect width="15" height="74" x="562" y="115" style="fill:rgb(0,4,200);stroke:none"/>
<rect width="15" height="74" x="577" y="115" style="fill:rgb(0,0,200);stroke:none"/>
<rect width="15" height="74" x="592" y="115" style="fill:rgb(0,0,200);stroke:none"/>
<rect width="15" height="74" x="607" y="115" style="fill:rgb(0,4,200);stroke:none"/>
<rect width="15" height="74" x="622" y="115" style="fill:rgb(0,4,200);stroke:none"/>
<rect width="15" height="74" x="637" y="115" style="fill:rgb(0,4,200);stroke:none"/>
<rect width="15" height="74" x="652" y="115" style="fill:rgb(0,4,200);stroke:none"/>
<rect width="15" height="74" x="667" y="115" style="fill:rgb(0,4,200);stroke:none"/>
<rect width="15" height="74" x="682" y="115" style="fill:rgb(0,0,200);stroke:none"/>
<rect width="15" height="74" x="697" y="115" style="fill:rgb(0,4,200);stroke:none"/>
<rect width="15" height="74" x="712" y="115" style="fill:rgb(0,0,200);stroke:none"/>
<rect width="15" height="74" x="727" y="115" style="fill:rgb(0,0,200);stroke:none"/>
<rect width="15" height="74" x="742" y="115" style="fill:rgb(0,0,200);stroke:none"/>
<rect width="15" height="74" x="757" y="115" style="fill:rgb(0,0,200);stroke:none"/>
<rect width="15" height="75" x="37" y="40" style="fill:rgb(0,0,200);stroke:none"/>
<rect width="15" height="75" x="52" y="40" style="fill:rgb(0,0,200);stroke:none"/>
<rect width="15" height="75" x="67" y="40" style="fill:rgb(0,0,200);stroke:none"/>
<rect width="15" height="75" x="82" y="40" style="fill:rgb(0,0,200);stroke:none"/>
<rect width="15" height="75" x="97" y="40" style="fill:rgb(0,0,200);stroke:none"/>
<rect width="15" height="75" x="112" y="40" style="fill:rgb(0,0,200);stroke:none"/>
<rect width="15" height="75" x="127" y="40" style="fill:rgb(0,8,200);stroke:none"/>
<rect width="15" height="75" x="142" y="40" style="fill:rgb(0,8,200);stroke:none"/>
<rect width="15" height="75" x="157" y="40" style="fill:rgb(0,8,200);stroke:none"/>
<rect width="15" height="75" x="172" y="40" style="fill:rgb(0,4,200);stroke:none"/>
<rect width="15" height="75" x="187" y="40" style="fill:rgb(0,0,200);stroke:none"/>
<rect width="15" height="75" x="202" y="40" style="fill:rgb(0,0,200);stroke:none"/>
<rect width="15" height="75" x="217" y="40" style="fill:rgb(0,0,200);stroke:none"/>
<rect width="15" height="75" x="232" y="40" style="fill:rgb(0,4,200);stroke:none"/>
<rect width="15" height="75" x="247" y="40" style="fill:rgb(0,4,200);stroke:none"/>
<rect width="15" height="75" x="262" y="40" style="fill:rgb(0,4,200);stroke:none"/>
<rect width="15" height="75" x="277" y="40" style="fill:rgb(0,4,200);stroke:none"/>
<rect width="15" height="75" x="292" y="40" style="fill:rgb(0,4,200);stroke:none"/>
<rect width="15" height="75" x="307" y="40" style="fill:rgb(0,4,200);stroke:none"/>
<rect width="15" height="75" x="322" y="40" style="fill:rgb(0,4,200);stroke:none"/>
<rect width="15" height="75" x="337" y="40" style="fill:rgb(0,4,200);stroke:none"/>
<rect width="15" height="75" x="352" y="40" style="fill:rgb(0,12,200);stroke:none"/>
<rect width="15" height="75" x="367" y="40" style="fill:rgb(0,4,200);stroke:none"/>
<rect width="15" height="75" x="382" y="40" style="fill:rgb(0,8,200);stroke:none"/>
<rect width="15" height="75" x="397" y="40" style="fill:rgb(0,8,200);stroke:none"/>
<rect width="15" height="75" x="412" y="40" style="fill:rgb(0,4,200);stroke:none"/>
<rect width="15" height="75" x="427" y="40" style="fill:rgb(0,8,200);stroke:none"/>
<rect width="15" height="75" x="442" y="40" style="fill:rgb(0,8,200);stroke:none"/>
<rect width="15" height="75" x="457" y="40" style="fill:rgb(0,4,200);stroke:none"/>
<rect width="15" height="75" x="472" y="40" style="fill:rgb(0,4,200);stroke:none"/>
<rect width="15" height="75" x="487" y="40" style="fill:rgb(0,0,200);stroke:none"/>
<rect width="15" height="75" x="502" y="40" style="fill:rgb(0,4,200);stroke:none"/>
<rect width="15" height="75" x="517" y="40" style="fill:rgb(0,0,200);stroke:none"/>
<rect width="15" height="75" x="532" y="40" style="fill:rgb(0,0,200);stroke:none"/>
<rect width="15" height="75" x="547" y="40" style="fill:rgb(0,0,200);stroke:none"/>
<rect width="15" height="75" x="562" y="40" style="fill:rgb(0,8,200);stroke:none"/>
<rect width="15" height="75" x="577" y="40" style="fill:rgb(0,4,200);stroke:none"/>
<rect width="15" height="75" x="592" y="40" style="fill:rgb(0,8,200);stroke:none"/>
<rect width="15" height="75" x="607" y="40" style="fill:rgb(0,4,200);stroke:none"/>
<rect width="15" height="75" x="622" y="40" style="fill:rgb(0,8,200);stroke:none"/>
<rect width="15" height="75" x="637" y="40" style="fill:rgb(0,8,200);stroke:none"/>
<rect width="15" height="75" x="652" y="40" style="fill:rgb(0,4,200);stroke:none"/>
<rect width="15" height="75" x="667" y="40" style="fill:rgb(0,8,200);stroke:none"/>
<rect width="15" height="75" x="682" y="40" style="fill:rgb(0,20,200);stroke:none"/>
<rect width="15" height="75" x="697" y="40" style="fill:rgb(0,8,200);stroke:none"/>
<rect width="15" height="75" x="712" y="40" style="fill:rgb(0,4,200);stroke:none"/>
<rect width="15" height="75" x="727" y="40" style="fill:rgb(0,12,200);stroke:none"/>
<rect width="15" height="75" x="742" y="40" style="fill:rgb(0,4,200);stroke:none"/>
<rect width="15" height="75" x="757" y="40" style="fill:rgb(0,12,200);stroke:none"/>
</svg>
